<svg id="svg" version="1.1" xmlns="http://www.w3.org/2000/svg" xmlns:xlink="http://www.w3.org/1999/xlink" width="400" height="400" viewBox="0, 0, 400,400"><g id="svgg"><path id="path0" d="M176.592 2.386 C 177.068 3.158,175.126 3.600,171.259 3.600 C 167.149 3.600,165.841 3.819,166.226 4.442 C 166.400 4.723,160.838 5.059,159.500 4.847 C 159.335 4.821,159.200 5.160,159.200 5.600 C 159.200 6.319,158.933 6.400,156.571 6.400 C 154.768 6.400,153.754 6.588,153.343 7.000 C 152.846 7.496,149.480 7.897,147.900 7.647 C 147.735 7.621,147.600 7.791,147.600 8.024 C 147.600 8.257,147.420 8.336,147.200 8.200 C 146.980 8.064,146.800 8.233,146.800 8.576 C 146.800 9.059,146.344 9.200,144.787 9.200 C 143.368 9.200,142.707 9.377,142.545 9.800 C 142.383 10.220,141.728 10.400,140.357 10.400 C 138.667 10.400,138.400 10.509,138.400 11.200 C 138.400 11.892,138.133 12.000,136.420 12.000 C 135.111 12.000,134.330 12.196,134.117 12.577 C 133.921 12.926,133.048 13.192,131.897 13.251 C 130.647 13.316,130.000 13.529,130.000 13.875 C 130.000 14.189,129.528 14.400,128.824 14.400 C 128.177 14.400,127.541 14.572,127.411 14.783 C 127.281 14.993,126.933 15.073,126.639 14.960 C 126.344 14.847,125.996 15.034,125.864 15.377 C 125.720 15.753,125.140 16.000,124.400 16.000 C 123.680 16.000,123.080 16.247,122.945 16.600 C 122.818 16.930,122.228 17.200,121.633 17.200 C 121.038 17.200,120.164 17.560,119.692 18.000 C 119.220 18.440,118.281 18.800,117.604 18.800 C 116.880 18.800,116.280 19.047,116.145 19.400 C 116.018 19.730,115.584 20.000,115.181 20.000 C 114.777 20.000,114.334 20.183,114.196 20.407 C 114.058 20.630,113.773 20.707,113.562 20.577 C 113.352 20.447,113.230 20.579,113.290 20.870 C 113.355 21.184,112.963 21.450,112.329 21.524 C 111.740 21.592,111.043 21.907,110.780 22.224 C 110.517 22.541,109.874 22.800,109.351 22.800 C 108.828 22.800,108.400 22.991,108.400 23.224 C 108.400 23.457,108.189 23.517,107.932 23.358 C 107.617 23.164,107.548 23.287,107.719 23.734 C 107.954 24.346,106.911 24.677,105.489 24.444 C 105.318 24.416,105.073 24.664,104.946 24.996 C 104.819 25.328,104.507 25.600,104.253 25.600 C 104.000 25.600,103.568 25.960,103.293 26.400 C 103.010 26.852,102.360 27.200,101.797 27.200 C 101.177 27.200,100.800 27.427,100.800 27.800 C 100.800 28.319,99.545 28.644,98.300 28.447 C 98.135 28.421,98.000 28.760,98.000 29.200 C 98.000 29.717,97.717 30.018,97.200 30.050 C 95.756 30.140,95.574 30.195,95.285 30.629 C 95.128 30.865,94.685 31.175,94.300 31.317 C 93.915 31.459,93.600 31.851,93.600 32.187 C 93.600 32.527,93.254 32.800,92.824 32.800 C 92.397 32.800,91.929 32.991,91.785 33.225 C 91.640 33.458,91.090 33.814,90.561 34.015 C 90.033 34.216,89.600 34.655,89.600 34.990 C 89.600 35.422,89.185 35.600,88.176 35.600 C 87.269 35.600,86.849 35.755,87.017 36.027 C 87.162 36.262,86.903 36.553,86.440 36.674 C 85.962 36.799,85.600 37.218,85.600 37.647 C 85.600 38.142,85.316 38.400,84.771 38.400 C 84.316 38.400,83.673 38.670,83.343 39.000 C 83.013 39.330,82.396 39.600,81.971 39.600 C 81.547 39.600,81.221 39.735,81.247 39.900 C 81.376 40.716,81.155 41.220,80.773 40.983 C 80.538 40.838,80.250 41.088,80.132 41.537 C 79.984 42.104,79.531 42.393,78.659 42.478 C 77.967 42.545,77.439 42.807,77.487 43.060 C 77.534 43.313,77.122 43.633,76.570 43.772 C 76.019 43.910,75.683 44.210,75.824 44.439 C 75.965 44.667,75.702 44.953,75.240 45.074 C 74.778 45.194,74.400 45.521,74.400 45.800 C 74.400 46.079,74.040 46.401,73.600 46.516 C 73.160 46.631,72.800 46.972,72.800 47.275 C 72.800 47.577,72.305 48.051,71.700 48.328 C 69.373 49.393,68.796 49.811,68.982 50.297 C 69.088 50.574,68.905 50.800,68.575 50.800 C 68.245 50.800,67.874 51.063,67.750 51.385 C 67.627 51.706,67.183 52.079,66.763 52.212 C 66.343 52.345,66.000 52.712,66.000 53.027 C 66.000 53.342,65.730 53.600,65.400 53.600 C 65.070 53.600,64.800 53.870,64.800 54.200 C 64.800 54.533,64.444 54.800,64.000 54.800 C 63.467 54.800,63.200 55.067,63.200 55.600 C 63.200 56.044,62.933 56.400,62.600 56.400 C 62.270 56.400,62.000 56.670,62.000 57.000 C 62.000 57.333,61.644 57.600,61.200 57.600 C 60.667 57.600,60.400 57.867,60.400 58.400 C 60.400 58.844,60.133 59.200,59.800 59.200 C 59.470 59.200,59.200 59.470,59.200 59.800 C 59.200 60.133,58.844 60.400,58.400 60.400 C 57.867 60.400,57.600 60.667,57.600 61.200 C 57.600 61.644,57.333 62.000,57.000 62.000 C 56.670 62.000,56.400 62.270,56.400 62.600 C 56.400 62.933,56.044 63.200,55.600 63.200 C 55.067 63.200,54.800 63.467,54.800 64.000 C 54.800 64.444,54.533 64.800,54.200 64.800 C 53.870 64.800,53.600 65.070,53.600 65.400 C 53.600 65.730,53.428 66.000,53.218 66.000 C 53.008 66.000,52.378 66.458,51.818 67.018 C 51.258 67.578,50.800 68.208,50.800 68.418 C 50.800 68.628,50.530 68.800,50.200 68.800 C 49.870 68.800,49.600 68.980,49.600 69.200 C 49.600 69.995,49.480 70.209,48.746 70.723 C 48.336 71.010,48.000 71.595,48.000 72.023 C 48.000 72.454,47.727 72.800,47.387 72.800 C 47.051 72.800,46.659 73.101,46.518 73.469 C 46.192 74.318,44.694 75.831,44.307 75.702 C 44.146 75.649,43.903 76.048,43.767 76.589 C 43.631 77.130,43.313 77.534,43.060 77.487 C 42.807 77.439,42.545 77.967,42.478 78.659 C 42.393 79.531,42.104 79.984,41.537 80.132 C 41.088 80.250,40.838 80.538,40.983 80.773 C 41.220 81.155,40.716 81.376,39.900 81.247 C 39.735 81.221,39.600 81.547,39.600 81.971 C 39.600 82.396,39.330 83.013,39.000 83.343 C 38.670 83.673,38.400 84.316,38.400 84.771 C 38.400 85.316,38.142 85.600,37.647 85.600 C 37.218 85.600,36.799 85.962,36.674 86.440 C 36.553 86.903,36.262 87.162,36.027 87.017 C 35.755 86.849,35.600 87.269,35.600 88.176 C 35.600 89.188,35.423 89.600,34.987 89.600 C 34.651 89.600,34.257 89.915,34.112 90.300 C 33.968 90.685,33.626 91.180,33.353 91.400 C 33.080 91.620,32.795 92.250,32.719 92.800 C 32.643 93.350,32.355 93.753,32.079 93.696 C 31.803 93.639,31.461 93.909,31.318 94.296 C 31.175 94.683,30.865 95.128,30.629 95.285 C 30.195 95.574,30.140 95.756,30.050 97.200 C 30.018 97.717,29.717 98.000,29.200 98.000 C 28.760 98.000,28.421 98.135,28.447 98.300 C 28.644 99.545,28.319 100.800,27.800 100.800 C 27.427 100.800,27.200 101.177,27.200 101.797 C 27.200 102.360,26.852 103.010,26.400 103.293 C 25.960 103.568,25.600 104.000,25.600 104.253 C 25.600 104.507,25.322 104.821,24.981 104.952 C 24.641 105.082,24.392 105.417,24.429 105.695 C 24.589 106.917,24.355 107.600,23.776 107.600 C 23.433 107.600,23.264 107.780,23.400 108.000 C 23.536 108.220,23.457 108.400,23.224 108.400 C 22.991 108.400,22.800 108.828,22.800 109.351 C 22.800 109.874,22.541 110.517,22.224 110.780 C 21.907 111.043,21.592 111.740,21.524 112.329 C 21.456 112.918,21.195 113.362,20.944 113.315 C 20.693 113.268,20.285 114.033,20.038 115.015 C 19.791 115.997,19.449 116.800,19.279 116.800 C 19.109 116.800,18.930 117.385,18.881 118.100 C 18.828 118.871,18.468 119.623,17.996 119.949 C 17.467 120.314,17.200 120.951,17.200 121.849 C 17.200 122.709,17.020 123.164,16.705 123.100 C 16.404 123.039,16.129 123.625,16.000 124.600 C 15.879 125.520,15.590 126.161,15.320 126.108 C 15.062 126.058,14.845 126.328,14.838 126.708 C 14.805 128.363,14.267 130.000,13.755 130.000 C 13.450 130.000,13.221 130.135,13.247 130.300 C 13.495 131.867,13.122 134.000,12.600 134.000 C 12.139 134.000,12.000 134.511,12.000 136.200 C 12.000 138.133,11.903 138.400,11.200 138.400 C 10.509 138.400,10.400 138.667,10.400 140.357 C 10.400 141.695,10.217 142.385,9.822 142.536 C 9.442 142.682,9.202 143.486,9.122 144.879 C 9.045 146.213,8.828 146.968,8.538 146.913 C 8.284 146.865,7.971 147.099,7.843 147.433 C 7.687 147.838,7.775 147.948,8.105 147.762 C 8.491 147.544,8.490 147.601,8.100 148.021 C 7.825 148.318,7.600 149.405,7.600 150.437 C 7.600 151.737,7.415 152.385,7.000 152.545 C 6.536 152.723,6.400 153.501,6.400 155.987 C 6.400 158.852,6.319 159.200,5.656 159.200 C 4.999 159.200,4.904 159.577,4.834 162.451 C 4.781 164.664,4.572 165.886,4.178 166.279 C 3.746 166.711,3.600 167.939,3.600 171.140 C 3.600 174.925,3.507 175.502,2.801 176.106 C 1.562 177.167,1.578 222.930,2.818 223.704 C 3.522 224.144,3.600 224.662,3.600 228.909 C 3.600 232.732,3.714 233.669,4.200 233.855 C 4.667 234.035,4.800 234.828,4.800 237.443 C 4.800 240.533,4.864 240.800,5.600 240.800 C 6.328 240.800,6.400 241.067,6.400 243.751 C 6.400 245.886,6.566 246.840,7.000 247.200 C 7.402 247.533,7.602 248.442,7.606 249.949 C 7.612 252.187,7.966 253.304,8.645 253.229 C 8.840 253.207,9.055 254.101,9.122 255.216 C 9.200 256.526,9.448 257.320,9.822 257.464 C 10.217 257.615,10.400 258.304,10.400 259.639 C 10.400 261.160,10.577 261.704,11.200 262.093 C 11.797 262.465,12.000 263.026,12.000 264.296 C 12.000 265.544,12.161 266.000,12.600 266.000 C 13.032 266.000,13.200 266.441,13.200 267.571 C 13.200 268.436,13.441 269.384,13.736 269.678 C 14.252 270.195,14.787 271.842,14.911 273.300 C 14.944 273.685,15.203 274.000,15.486 274.000 C 15.807 274.000,16.000 274.526,16.000 275.400 C 16.000 276.378,16.181 276.800,16.600 276.800 C 17.015 276.800,17.200 277.217,17.200 278.151 C 17.200 279.049,17.467 279.686,17.996 280.051 C 18.472 280.380,18.828 281.130,18.882 281.923 C 18.933 282.651,19.205 283.438,19.487 283.672 C 19.769 283.906,20.000 284.438,20.000 284.853 C 20.000 285.268,20.360 285.916,20.800 286.293 C 21.240 286.670,21.600 287.375,21.600 287.860 C 21.600 288.346,21.870 289.013,22.200 289.343 C 22.530 289.673,22.800 290.211,22.800 290.539 C 22.800 291.571,23.265 292.400,23.843 292.400 C 24.166 292.400,24.400 292.808,24.400 293.371 C 24.400 293.906,24.670 294.613,25.000 294.943 C 25.330 295.273,25.600 295.671,25.600 295.827 C 25.600 295.984,25.915 296.370,26.300 296.686 C 26.758 297.061,26.793 297.170,26.400 297.000 C 26.007 296.830,26.042 296.939,26.500 297.314 C 26.885 297.630,27.200 298.183,27.200 298.544 C 27.200 298.905,27.470 299.200,27.800 299.200 C 28.319 299.200,28.644 300.455,28.447 301.700 C 28.421 301.865,28.760 302.000,29.200 302.000 C 29.717 302.000,30.018 302.283,30.050 302.800 C 30.140 304.244,30.195 304.426,30.629 304.715 C 30.865 304.872,31.175 305.315,31.317 305.700 C 31.459 306.085,31.851 306.400,32.187 306.400 C 32.576 306.400,32.800 306.770,32.800 307.413 C 32.800 307.969,33.070 308.529,33.400 308.655 C 33.730 308.782,34.000 309.153,34.000 309.480 C 34.000 309.807,34.360 310.169,34.800 310.284 C 35.405 310.442,35.600 310.830,35.600 311.870 C 35.600 312.744,35.756 313.151,36.027 312.983 C 36.262 312.838,36.553 313.097,36.674 313.560 C 36.799 314.038,37.218 314.400,37.647 314.400 C 38.241 314.400,38.400 314.696,38.400 315.800 C 38.400 316.778,38.581 317.200,39.000 317.200 C 39.333 317.200,39.600 317.556,39.600 318.000 C 39.600 318.541,39.867 318.800,40.424 318.800 C 40.905 318.800,41.138 318.977,40.983 319.227 C 40.838 319.462,41.088 319.750,41.537 319.868 C 42.104 320.016,42.393 320.469,42.478 321.341 C 42.545 322.033,42.807 322.561,43.060 322.513 C 43.313 322.466,43.633 322.878,43.772 323.430 C 43.910 323.981,44.210 324.317,44.439 324.176 C 44.667 324.035,44.953 324.298,45.074 324.760 C 45.194 325.222,45.542 325.600,45.847 325.600 C 46.151 325.600,46.400 325.887,46.400 326.237 C 46.400 326.588,46.760 326.969,47.200 327.084 C 47.640 327.199,48.000 327.622,48.000 328.024 C 48.000 328.426,48.336 328.990,48.746 329.277 C 49.480 329.791,49.600 330.005,49.600 330.800 C 49.600 331.020,49.870 331.200,50.200 331.200 C 50.530 331.200,50.800 331.458,50.800 331.773 C 50.800 332.088,51.173 332.464,51.629 332.609 C 52.127 332.767,52.372 333.097,52.241 333.436 C 52.100 333.804,52.299 334.000,52.813 334.000 C 53.253 334.000,53.600 334.270,53.600 334.613 C 53.600 334.949,53.870 335.329,54.200 335.455 C 54.530 335.582,54.800 335.936,54.800 336.243 C 54.800 336.549,55.160 336.800,55.600 336.800 C 56.044 336.800,56.400 337.067,56.400 337.400 C 56.400 337.730,56.670 338.000,57.000 338.000 C 57.333 338.000,57.600 338.356,57.600 338.800 C 57.600 339.333,57.867 339.600,58.400 339.600 C 58.844 339.600,59.200 339.867,59.200 340.200 C 59.200 340.530,59.470 340.800,59.800 340.800 C 60.133 340.800,60.400 341.156,60.400 341.600 C 60.400 342.133,60.667 342.400,61.200 342.400 C 61.644 342.400,62.000 342.667,62.000 343.000 C 62.000 343.330,62.270 343.600,62.600 343.600 C 62.933 343.600,63.200 343.956,63.200 344.400 C 63.200 344.933,63.467 345.200,64.000 345.200 C 64.444 345.200,64.800 345.467,64.800 345.800 C 64.800 346.130,65.070 346.400,65.400 346.400 C 65.730 346.400,66.000 346.658,66.000 346.973 C 66.000 347.288,66.343 347.655,66.763 347.788 C 67.183 347.921,67.627 348.294,67.750 348.615 C 67.874 348.937,68.245 349.200,68.575 349.200 C 68.970 349.200,69.088 349.427,68.919 349.866 C 68.764 350.270,68.825 350.432,69.074 350.278 C 69.299 350.139,69.901 350.469,70.412 351.012 C 70.922 351.556,71.668 352.000,72.070 352.000 C 72.471 352.000,72.800 352.287,72.800 352.637 C 72.800 352.988,73.160 353.369,73.600 353.484 C 74.040 353.599,74.400 353.942,74.400 354.247 C 74.400 354.551,74.670 354.800,75.000 354.800 C 75.330 354.800,75.600 355.067,75.600 355.392 C 75.600 355.718,76.044 356.096,76.587 356.232 C 77.129 356.369,77.534 356.679,77.487 356.922 C 77.401 357.360,77.656 357.453,79.200 357.550 C 79.640 357.578,80.000 357.876,80.000 358.213 C 80.000 358.549,80.270 358.929,80.600 359.055 C 80.930 359.182,81.200 359.536,81.200 359.843 C 81.200 360.149,81.560 360.400,82.000 360.400 C 82.440 360.400,82.800 360.650,82.800 360.955 C 82.800 361.274,83.398 361.623,84.200 361.774 C 84.972 361.918,85.600 362.276,85.600 362.571 C 85.600 362.866,85.978 363.206,86.440 363.326 C 86.903 363.447,87.162 363.738,87.017 363.973 C 86.849 364.245,87.269 364.400,88.176 364.400 C 89.185 364.400,89.600 364.578,89.600 365.010 C 89.600 365.345,90.061 365.795,90.624 366.009 C 91.187 366.223,91.544 366.567,91.416 366.773 C 91.289 366.980,91.773 367.205,92.492 367.274 C 93.294 367.351,93.760 367.598,93.696 367.911 C 93.639 368.192,93.909 368.539,94.296 368.682 C 94.683 368.825,95.128 369.135,95.285 369.371 C 95.574 369.805,95.756 369.860,97.200 369.950 C 97.717 369.982,98.000 370.283,98.000 370.800 C 98.000 371.240,98.135 371.579,98.300 371.553 C 99.545 371.356,100.800 371.681,100.800 372.200 C 100.800 372.569,101.175 372.800,101.776 372.800 C 102.313 372.800,102.881 373.008,103.038 373.262 C 103.226 373.565,103.131 373.624,102.762 373.432 C 102.453 373.272,102.549 373.424,102.976 373.770 C 103.404 374.117,103.989 374.400,104.276 374.400 C 104.564 374.400,104.800 374.578,104.800 374.795 C 104.800 375.013,105.506 375.303,106.370 375.442 C 107.482 375.619,107.877 375.854,107.727 376.246 C 107.610 376.551,107.669 376.813,107.857 376.830 C 109.128 376.940,110.204 377.283,110.431 377.650 C 110.577 377.886,111.305 378.212,112.048 378.374 C 112.792 378.535,113.361 378.858,113.314 379.092 C 113.267 379.325,113.834 379.630,114.574 379.769 C 115.314 379.908,116.107 380.247,116.337 380.524 C 116.566 380.800,117.349 381.067,118.077 381.118 C 118.870 381.172,119.620 381.528,119.949 382.004 C 120.273 382.475,120.950 382.800,121.606 382.800 C 122.222 382.800,122.817 383.066,122.945 383.400 C 123.078 383.748,123.676 384.000,124.368 384.000 C 125.047 384.000,125.715 384.277,125.920 384.642 C 126.136 385.029,127.020 385.368,128.140 385.494 C 129.346 385.630,130.000 385.897,130.000 386.252 C 130.000 386.641,130.567 386.800,131.957 386.800 C 133.328 386.800,133.983 386.980,134.145 387.400 C 134.307 387.823,134.968 388.000,136.387 388.000 C 138.133 388.000,138.400 388.106,138.400 388.800 C 138.400 389.491,138.667 389.600,140.357 389.600 C 141.695 389.600,142.385 389.783,142.536 390.178 C 142.680 390.552,143.474 390.800,144.784 390.878 C 145.899 390.945,146.793 391.160,146.771 391.355 C 146.694 392.050,147.834 392.388,150.276 392.394 C 151.710 392.397,152.873 392.594,153.038 392.862 C 153.227 393.167,153.146 393.214,152.800 393.000 C 152.454 392.786,152.373 392.833,152.562 393.138 C 152.738 393.424,154.043 393.600,155.977 393.600 C 158.770 393.600,159.129 393.686,159.316 394.400 C 159.503 395.116,159.862 395.200,162.714 395.200 C 165.060 395.200,166.034 395.358,166.400 395.800 C 166.789 396.269,167.892 396.400,171.449 396.400 C 175.057 396.400,176.000 396.515,176.000 396.953 C 176.000 397.928,177.412 397.989,200.000 397.989 C 222.588 397.989,224.000 397.928,224.000 396.953 C 224.000 396.514,224.946 396.400,228.571 396.400 C 232.102 396.400,233.280 396.263,233.743 395.800 C 234.177 395.366,235.235 395.200,237.571 395.200 C 240.533 395.200,240.800 395.134,240.800 394.400 C 240.800 393.672,241.067 393.600,243.757 393.600 C 246.017 393.600,246.769 393.458,246.945 393.000 C 247.117 392.552,247.833 392.400,249.773 392.400 C 251.962 392.400,252.439 392.274,252.800 391.600 C 253.139 390.967,253.638 390.800,255.194 390.800 C 256.486 390.800,257.270 390.603,257.482 390.226 C 257.676 389.878,258.591 389.602,259.801 389.526 C 261.255 389.434,261.800 389.236,261.800 388.800 C 261.800 388.367,262.335 388.166,263.721 388.077 C 264.937 388.000,265.724 387.742,265.864 387.377 C 266.015 386.983,266.706 386.800,268.043 386.800 C 269.516 386.800,270.000 386.652,270.000 386.200 C 270.000 385.781,270.422 385.600,271.400 385.600 C 272.267 385.600,273.105 385.295,273.600 384.800 C 274.048 384.352,274.933 384.000,275.613 384.000 C 276.321 384.000,276.921 383.751,277.055 383.400 C 277.182 383.070,277.763 382.800,278.347 382.800 C 278.974 382.800,279.612 382.473,279.907 382.000 C 280.253 381.446,280.840 381.200,281.816 381.200 C 282.646 381.200,283.312 380.973,283.437 380.647 C 283.554 380.343,284.358 379.981,285.223 379.843 C 286.099 379.703,286.753 379.386,286.699 379.129 C 286.644 378.875,287.225 378.532,287.989 378.366 C 288.753 378.200,289.443 377.870,289.523 377.632 C 289.602 377.395,289.997 377.200,290.401 377.200 C 291.562 377.200,292.400 376.763,292.400 376.157 C 292.400 375.681,293.449 375.382,294.511 375.556 C 294.682 375.584,294.927 375.336,295.054 375.004 C 295.181 374.672,295.496 374.400,295.754 374.400 C 296.011 374.400,296.530 374.040,296.907 373.600 C 297.284 373.160,297.954 372.800,298.396 372.800 C 298.844 372.800,299.200 372.534,299.200 372.200 C 299.200 371.870,299.545 371.600,299.967 371.600 C 301.159 371.600,302.000 371.169,302.000 370.557 C 302.000 370.251,302.360 369.978,302.800 369.950 C 304.244 369.860,304.426 369.805,304.715 369.371 C 304.872 369.135,305.315 368.825,305.700 368.683 C 306.085 368.541,306.400 368.149,306.400 367.813 C 306.400 367.399,306.789 367.200,307.600 367.200 C 308.355 367.200,308.800 366.995,308.800 366.647 C 308.800 366.342,309.160 365.999,309.600 365.884 C 310.040 365.769,310.400 365.388,310.400 365.037 C 310.400 364.601,310.765 364.400,311.557 364.400 C 312.217 364.400,312.813 364.142,312.945 363.800 C 313.071 363.470,313.451 363.200,313.787 363.200 C 314.124 363.200,314.400 362.950,314.400 362.645 C 314.400 362.326,314.998 361.977,315.800 361.826 C 316.638 361.669,317.200 361.330,317.200 360.982 C 317.200 360.662,317.476 360.400,317.813 360.400 C 318.149 360.400,318.529 360.130,318.655 359.800 C 318.782 359.470,319.136 359.200,319.443 359.200 C 319.749 359.200,320.000 358.840,320.000 358.400 C 320.000 357.782,320.267 357.600,321.173 357.600 C 321.991 357.600,322.422 357.360,322.597 356.808 C 322.736 356.373,322.973 356.034,323.124 356.055 C 323.939 356.171,324.400 355.934,324.400 355.400 C 324.400 355.070,324.670 354.800,325.000 354.800 C 325.330 354.800,325.600 354.551,325.600 354.247 C 325.600 353.942,325.960 353.599,326.400 353.484 C 326.840 353.369,327.200 352.988,327.200 352.637 C 327.200 352.287,327.529 352.000,327.930 352.000 C 328.332 352.000,329.078 351.556,329.588 351.012 C 330.099 350.469,330.670 350.120,330.858 350.236 C 331.046 350.352,331.201 350.212,331.203 349.924 C 331.204 349.636,331.834 348.972,332.603 348.448 C 333.371 347.925,334.000 347.250,334.000 346.948 C 334.000 346.647,334.276 346.400,334.613 346.400 C 334.949 346.400,335.329 346.130,335.455 345.800 C 335.582 345.470,335.936 345.200,336.243 345.200 C 336.549 345.200,336.800 344.840,336.800 344.400 C 336.800 343.956,337.067 343.600,337.400 343.600 C 337.730 343.600,338.000 343.330,338.000 343.000 C 338.000 342.667,338.356 342.400,338.800 342.400 C 339.333 342.400,339.600 342.133,339.600 341.600 C 339.600 341.156,339.867 340.800,340.200 340.800 C 340.530 340.800,340.800 340.530,340.800 340.200 C 340.800 339.867,341.156 339.600,341.600 339.600 C 342.133 339.600,342.400 339.333,342.400 338.800 C 342.400 338.356,342.667 338.000,343.000 338.000 C 343.330 338.000,343.600 337.730,343.600 337.400 C 343.600 337.067,343.956 336.800,344.400 336.800 C 344.840 336.800,345.200 336.549,345.200 336.243 C 345.200 335.936,345.470 335.582,345.800 335.455 C 346.130 335.329,346.400 334.949,346.400 334.613 C 346.400 334.276,346.604 334.000,346.854 334.000 C 347.336 334.000,349.200 332.154,349.200 331.676 C 349.200 331.520,349.578 331.157,350.039 330.869 C 350.500 330.580,350.772 330.238,350.641 330.108 C 350.511 329.978,350.764 329.620,351.203 329.313 C 351.641 329.006,352.000 328.426,352.000 328.024 C 352.000 327.622,352.360 327.199,352.800 327.084 C 353.240 326.969,353.600 326.588,353.600 326.237 C 353.600 325.887,353.870 325.600,354.200 325.600 C 354.530 325.600,354.800 325.330,354.800 325.000 C 354.800 324.670,355.070 324.400,355.400 324.400 C 355.730 324.400,356.023 324.220,356.050 324.000 C 356.078 323.780,356.123 323.375,356.150 323.100 C 356.178 322.825,356.470 322.600,356.800 322.600 C 357.185 322.600,357.445 322.133,357.525 321.300 C 357.619 320.324,357.844 320.000,358.425 320.000 C 358.851 320.000,359.200 319.749,359.200 319.443 C 359.200 319.136,359.470 318.782,359.800 318.655 C 360.130 318.529,360.400 318.149,360.400 317.813 C 360.400 317.476,360.662 317.200,360.982 317.200 C 361.330 317.200,361.669 316.638,361.826 315.800 C 361.977 314.998,362.326 314.400,362.645 314.400 C 362.950 314.400,363.200 314.124,363.200 313.787 C 363.200 313.451,363.470 313.071,363.800 312.945 C 364.142 312.813,364.400 312.217,364.400 311.557 C 364.400 310.785,364.604 310.400,365.013 310.400 C 365.349 310.400,365.743 310.085,365.888 309.700 C 366.032 309.315,366.374 308.820,366.647 308.600 C 366.920 308.380,367.205 307.750,367.281 307.200 C 367.357 306.650,367.645 306.247,367.921 306.304 C 368.197 306.361,368.539 306.091,368.682 305.704 C 368.825 305.317,369.135 304.872,369.371 304.715 C 369.805 304.426,369.860 304.244,369.950 302.800 C 369.978 302.360,370.251 302.000,370.557 302.000 C 371.169 302.000,371.600 301.159,371.600 299.967 C 371.600 299.545,371.870 299.200,372.200 299.200 C 372.534 299.200,372.800 298.844,372.800 298.396 C 372.800 297.954,373.160 297.284,373.600 296.907 C 374.040 296.530,374.400 296.011,374.400 295.754 C 374.400 295.496,374.670 295.182,375.000 295.055 C 375.351 294.921,375.600 294.321,375.600 293.613 C 375.600 292.843,375.803 292.400,376.157 292.400 C 376.735 292.400,377.200 291.571,377.200 290.539 C 377.200 290.211,377.470 289.673,377.800 289.343 C 378.130 289.013,378.400 288.346,378.400 287.860 C 378.400 287.375,378.760 286.670,379.200 286.293 C 379.640 285.916,380.000 285.268,380.000 284.853 C 380.000 284.438,380.231 283.906,380.513 283.672 C 380.795 283.438,381.067 282.651,381.117 281.923 C 381.169 281.181,381.558 280.308,382.004 279.936 C 382.442 279.571,382.800 278.825,382.800 278.279 C 382.800 277.732,383.070 277.182,383.400 277.055 C 383.751 276.921,384.000 276.321,384.000 275.613 C 384.000 274.933,384.352 274.048,384.800 273.600 C 385.295 273.105,385.600 272.267,385.600 271.400 C 385.600 270.422,385.781 270.000,386.200 270.000 C 386.653 270.000,386.800 269.511,386.800 268.000 C 386.800 266.489,386.947 266.000,387.400 266.000 C 387.839 266.000,388.000 265.544,388.000 264.296 C 388.000 263.026,388.203 262.465,388.800 262.093 C 389.423 261.704,389.600 261.160,389.600 259.639 C 389.600 258.272,389.780 257.617,390.200 257.455 C 390.623 257.293,390.800 256.634,390.800 255.227 C 390.800 253.638,390.964 253.140,391.600 252.800 C 392.260 252.447,392.400 251.962,392.400 250.029 C 392.400 248.315,392.561 247.624,393.000 247.455 C 393.464 247.277,393.600 246.499,393.600 244.013 C 393.600 241.067,393.666 240.800,394.400 240.800 C 395.134 240.800,395.200 240.533,395.200 237.571 C 395.200 235.235,395.366 234.177,395.800 233.743 C 396.259 233.284,396.400 232.134,396.400 228.860 C 396.400 225.096,396.495 224.496,397.187 223.904 C 398.436 222.835,398.453 177.884,397.206 176.298 C 396.508 175.411,396.400 174.679,396.400 170.824 C 396.400 167.238,396.284 166.330,395.800 166.145 C 395.336 165.967,395.200 165.190,395.200 162.720 C 395.200 159.862,395.116 159.503,394.400 159.316 C 393.693 159.131,393.600 158.770,393.600 156.202 C 393.600 154.109,393.433 153.159,393.000 152.800 C 392.598 152.467,392.398 151.558,392.394 150.051 C 392.388 147.813,392.034 146.696,391.355 146.771 C 391.160 146.793,390.945 145.899,390.878 144.784 C 390.800 143.474,390.552 142.680,390.178 142.536 C 389.788 142.387,389.600 141.707,389.600 140.446 C 389.600 139.035,389.404 138.435,388.800 138.000 C 388.214 137.578,388.000 136.965,388.000 135.712 C 388.000 134.457,387.840 134.000,387.400 134.000 C 386.955 134.000,386.800 133.532,386.800 132.187 C 386.800 130.945,386.611 130.302,386.200 130.145 C 385.830 130.003,385.600 129.395,385.600 128.557 C 385.600 127.811,385.401 127.200,385.157 127.200 C 384.914 127.200,384.817 126.932,384.943 126.605 C 385.074 126.263,384.967 126.050,384.691 126.105 C 384.408 126.161,384.125 125.545,384.000 124.600 C 383.871 123.625,383.596 123.039,383.295 123.100 C 382.980 123.164,382.800 122.709,382.800 121.849 C 382.800 120.951,382.533 120.314,382.004 119.949 C 381.528 119.620,381.172 118.870,381.118 118.077 C 381.067 117.349,380.800 116.566,380.524 116.337 C 380.247 116.107,379.906 115.308,379.766 114.560 C 379.621 113.789,379.271 113.200,378.955 113.200 C 378.634 113.200,378.400 112.791,378.400 112.229 C 378.400 111.694,378.131 110.988,377.802 110.659 C 377.288 110.145,376.942 109.148,376.830 107.857 C 376.813 107.669,376.530 107.618,376.200 107.745 C 375.797 107.899,375.600 107.727,375.600 107.220 C 375.600 106.444,373.717 102.400,373.355 102.400 C 373.244 102.400,373.281 102.608,373.438 102.862 C 373.615 103.148,373.548 103.215,373.262 103.038 C 373.008 102.881,372.800 102.313,372.800 101.776 C 372.800 101.175,372.569 100.800,372.200 100.800 C 371.681 100.800,371.356 99.545,371.553 98.300 C 371.579 98.135,371.240 98.000,370.800 98.000 C 370.283 98.000,369.982 97.717,369.950 97.200 C 369.860 95.756,369.805 95.574,369.371 95.285 C 369.135 95.128,368.825 94.683,368.682 94.296 C 368.539 93.909,368.197 93.639,367.921 93.696 C 367.645 93.753,367.357 93.350,367.281 92.800 C 367.205 92.250,366.920 91.620,366.647 91.400 C 366.374 91.180,366.032 90.685,365.888 90.300 C 365.743 89.915,365.349 89.600,365.013 89.600 C 364.577 89.600,364.400 89.188,364.400 88.176 C 364.400 87.269,364.245 86.849,363.973 87.017 C 363.738 87.162,363.447 86.903,363.326 86.440 C 363.206 85.978,362.866 85.600,362.571 85.600 C 362.276 85.600,361.918 84.972,361.774 84.200 C 361.623 83.398,361.274 82.800,360.955 82.800 C 360.650 82.800,360.400 82.440,360.400 82.000 C 360.400 81.560,360.149 81.200,359.843 81.200 C 359.536 81.200,359.182 80.930,359.055 80.600 C 358.929 80.270,358.561 80.000,358.238 80.000 C 357.868 80.000,357.604 79.519,357.525 78.700 C 357.456 77.985,357.193 77.439,356.940 77.487 C 356.687 77.534,356.369 77.129,356.232 76.587 C 356.096 76.044,355.718 75.600,355.392 75.600 C 355.067 75.600,354.800 75.330,354.800 75.000 C 354.800 74.670,354.551 74.400,354.247 74.400 C 353.942 74.400,353.599 74.040,353.484 73.600 C 353.369 73.160,352.988 72.800,352.637 72.800 C 352.273 72.800,352.000 72.467,352.000 72.023 C 352.000 71.595,351.595 70.962,351.100 70.615 C 350.605 70.268,350.245 69.898,350.300 69.792 C 350.573 69.268,350.337 68.800,349.800 68.800 C 349.470 68.800,349.200 68.549,349.200 68.243 C 349.200 67.936,348.930 67.582,348.600 67.455 C 348.270 67.329,348.000 66.949,348.000 66.613 C 348.000 66.276,347.865 66.021,347.700 66.047 C 346.875 66.178,346.400 65.941,346.400 65.400 C 346.400 65.070,346.151 64.800,345.847 64.800 C 345.542 64.800,345.199 64.440,345.084 64.000 C 344.969 63.560,344.588 63.200,344.237 63.200 C 343.887 63.200,343.600 62.930,343.600 62.600 C 343.600 62.270,343.330 62.000,343.000 62.000 C 342.667 62.000,342.400 61.644,342.400 61.200 C 342.400 60.667,342.133 60.400,341.600 60.400 C 341.156 60.400,340.800 60.133,340.800 59.800 C 340.800 59.470,340.530 59.200,340.200 59.200 C 339.867 59.200,339.600 58.844,339.600 58.400 C 339.600 57.867,339.333 57.600,338.800 57.600 C 338.356 57.600,338.000 57.333,338.000 57.000 C 338.000 56.670,337.730 56.400,337.400 56.400 C 337.067 56.400,336.800 56.044,336.800 55.600 C 336.800 55.160,336.549 54.800,336.243 54.800 C 335.936 54.800,335.582 54.530,335.455 54.200 C 335.329 53.870,334.949 53.600,334.613 53.600 C 334.276 53.600,334.000 53.324,334.000 52.987 C 334.000 52.651,333.685 52.259,333.300 52.118 C 332.915 51.976,332.456 51.622,332.280 51.330 C 332.104 51.039,331.684 50.800,331.347 50.800 C 331.009 50.800,330.808 50.576,330.899 50.303 C 331.066 49.802,330.298 49.212,328.326 48.327 C 327.736 48.061,327.168 47.519,327.064 47.122 C 326.960 46.725,326.588 46.400,326.237 46.400 C 325.887 46.400,325.600 46.151,325.600 45.847 C 325.600 45.542,325.222 45.194,324.760 45.074 C 324.298 44.953,324.030 44.675,324.166 44.456 C 324.301 44.237,324.066 43.948,323.643 43.814 C 323.220 43.679,322.773 43.306,322.650 42.985 C 322.524 42.657,321.913 42.400,321.259 42.400 C 320.411 42.400,320.033 42.171,319.874 41.560 C 319.753 41.097,319.462 40.838,319.227 40.983 C 318.977 41.138,318.800 40.905,318.800 40.424 C 318.800 39.867,318.541 39.600,318.000 39.600 C 317.556 39.600,317.200 39.333,317.200 39.000 C 317.200 38.670,317.065 38.421,316.900 38.447 C 315.481 38.671,314.400 38.325,314.400 37.647 C 314.400 37.218,314.038 36.799,313.560 36.674 C 313.097 36.553,312.838 36.262,312.983 36.027 C 313.151 35.755,312.731 35.600,311.824 35.600 C 310.788 35.600,310.400 35.426,310.400 34.963 C 310.400 34.612,310.040 34.231,309.600 34.116 C 309.160 34.001,308.800 33.658,308.800 33.353 C 308.800 33.005,308.355 32.800,307.600 32.800 C 306.789 32.800,306.400 32.601,306.400 32.187 C 306.400 31.851,306.085 31.459,305.700 31.317 C 305.315 31.175,304.872 30.865,304.715 30.629 C 304.426 30.195,304.244 30.140,302.800 30.050 C 302.283 30.018,302.000 29.717,302.000 29.200 C 302.000 28.760,301.865 28.421,301.700 28.447 C 300.455 28.644,299.200 28.319,299.200 27.800 C 299.200 27.470,298.905 27.200,298.544 27.200 C 298.183 27.200,297.630 26.885,297.314 26.500 C 296.939 26.042,296.830 26.007,297.000 26.400 C 297.170 26.793,297.061 26.758,296.686 26.300 C 296.370 25.915,295.817 25.600,295.456 25.600 C 295.095 25.600,294.845 25.383,294.900 25.118 C 294.999 24.642,294.759 24.547,293.200 24.450 C 292.760 24.422,292.400 24.149,292.400 23.843 C 292.400 23.265,291.571 22.800,290.539 22.800 C 290.211 22.800,289.673 22.530,289.343 22.200 C 289.013 21.870,288.346 21.600,287.860 21.600 C 287.375 21.600,286.670 21.240,286.293 20.800 C 285.916 20.360,285.265 20.000,284.847 20.000 C 284.428 20.000,283.982 19.730,283.855 19.400 C 283.711 19.023,283.099 18.800,282.213 18.800 C 281.436 18.800,280.800 18.620,280.800 18.400 C 280.800 18.180,280.530 18.000,280.200 18.000 C 279.870 18.000,279.600 17.820,279.600 17.600 C 279.600 17.380,279.054 17.200,278.387 17.200 C 277.679 17.200,277.079 16.951,276.945 16.600 C 276.815 16.261,276.219 16.000,275.577 16.000 C 274.952 16.000,274.287 15.727,274.101 15.394 C 273.908 15.049,273.007 14.713,272.008 14.614 C 270.988 14.513,270.109 14.180,269.907 13.820 C 269.677 13.408,268.976 13.200,267.823 13.200 C 266.648 13.200,266.011 13.006,265.855 12.600 C 265.697 12.186,265.051 12.000,263.775 12.000 C 262.262 12.000,261.887 11.855,261.716 11.200 C 261.543 10.538,261.170 10.400,259.553 10.400 C 258.084 10.400,257.600 10.251,257.600 9.800 C 257.600 9.339,257.089 9.200,255.400 9.200 C 253.674 9.200,253.200 9.066,253.200 8.576 C 253.200 8.233,253.020 8.064,252.800 8.200 C 252.580 8.336,252.400 8.257,252.400 8.024 C 252.400 7.769,251.370 7.600,249.824 7.600 C 248.308 7.600,247.130 7.410,246.962 7.138 C 246.773 6.833,246.854 6.786,247.200 7.000 C 247.546 7.214,247.627 7.167,247.438 6.862 C 247.261 6.575,245.946 6.400,243.976 6.400 C 241.067 6.400,240.800 6.333,240.800 5.600 C 240.800 4.859,240.533 4.800,237.200 4.800 C 234.533 4.800,233.626 4.670,233.700 4.300 C 233.774 3.928,232.623 3.773,229.200 3.696 C 225.186 3.605,224.516 3.491,223.941 2.802 C 223.213 1.930,176.053 1.515,176.592 2.386 M213.400 97.163 C 220.661 98.748,222.653 99.303,224.600 100.285 C 225.480 100.729,226.895 101.317,227.745 101.592 C 228.595 101.867,230.525 102.791,232.033 103.646 C 233.541 104.501,234.869 105.200,234.984 105.200 C 235.320 105.200,240.378 108.721,243.200 110.919 C 254.648 119.836,264.533 135.417,267.234 148.800 C 270.034 162.677,269.988 166.787,266.865 181.795 C 266.282 184.596,260.769 196.702,259.224 198.573 C 259.030 198.808,257.396 201.880,255.593 205.400 C 253.789 208.920,252.155 211.997,251.960 212.237 C 251.765 212.478,251.004 213.828,250.268 215.237 C 249.532 216.647,248.204 219.150,247.317 220.800 C 245.369 224.424,242.690 229.471,240.416 233.800 C 239.492 235.560,238.480 237.284,238.168 237.631 C 237.855 237.979,237.600 238.528,237.600 238.851 C 237.600 239.175,237.444 239.611,237.253 239.820 C 237.062 240.029,235.859 242.180,234.580 244.600 C 233.301 247.020,232.007 249.450,231.706 250.000 C 231.404 250.550,230.396 252.440,229.466 254.200 C 227.438 258.038,223.989 264.491,222.196 267.800 C 219.291 273.164,217.782 276.001,215.705 280.000 C 214.505 282.310,212.961 285.190,212.274 286.400 C 210.508 289.508,207.913 294.357,205.617 298.844 C 202.000 305.908,198.884 306.583,195.944 300.938 C 195.389 299.872,194.245 297.740,193.403 296.200 C 192.561 294.660,191.198 292.140,190.374 290.600 C 189.550 289.060,188.387 286.900,187.789 285.800 C 187.191 284.700,185.526 281.550,184.088 278.800 C 182.650 276.050,181.359 273.710,181.220 273.600 C 181.082 273.490,180.298 272.050,179.479 270.400 C 178.660 268.750,177.164 265.870,176.156 264.000 C 173.957 259.925,172.123 256.491,169.000 250.600 C 167.717 248.180,166.182 245.300,165.589 244.200 C 164.997 243.100,163.793 240.850,162.914 239.200 C 159.643 233.056,158.465 230.864,155.500 225.400 C 153.828 222.320,152.222 219.260,151.930 218.600 C 151.639 217.940,150.815 216.504,150.100 215.409 C 149.385 214.314,148.800 213.172,148.800 212.871 C 148.800 212.570,148.436 211.812,147.991 211.187 C 147.546 210.562,146.533 208.735,145.741 207.125 C 144.948 205.516,143.963 203.722,143.550 203.138 C 143.138 202.554,142.800 201.893,142.800 201.670 C 142.800 201.446,141.900 199.705,140.800 197.800 C 139.700 195.895,138.800 194.205,138.800 194.043 C 138.800 193.882,138.091 192.574,137.225 191.138 C 135.828 188.822,134.776 186.046,133.004 180.000 C 132.224 177.338,131.400 169.222,131.400 164.200 C 131.400 157.861,132.238 151.543,133.734 146.600 C 134.067 145.500,134.685 143.430,135.107 142.000 C 138.862 129.279,150.538 114.673,163.533 106.441 C 166.639 104.473,168.179 103.691,175.344 100.444 C 178.847 98.857,186.099 97.089,194.200 95.847 C 197.905 95.280,207.916 95.965,213.400 97.163 M191.200 104.643 C 187.048 105.137,180.420 106.794,179.400 107.594 C 179.180 107.766,178.387 108.039,177.637 108.199 C 176.887 108.360,174.655 109.371,172.677 110.446 C 170.699 111.521,168.955 112.400,168.802 112.400 C 168.649 112.400,168.198 112.760,167.800 113.200 C 167.402 113.640,166.905 114.000,166.695 114.000 C 164.438 114.000,151.821 126.783,148.685 132.246 C 144.456 139.615,143.192 142.669,141.089 150.600 C 139.492 156.622,139.188 171.429,140.560 176.400 C 140.954 177.830,141.506 179.990,141.785 181.200 C 142.352 183.653,142.896 184.919,145.132 189.000 C 145.977 190.540,147.618 193.600,148.781 195.800 C 149.944 198.000,151.618 201.150,152.502 202.800 C 153.386 204.450,154.686 206.880,155.390 208.200 C 158.303 213.662,160.580 217.872,161.229 219.000 C 161.609 219.660,162.904 222.090,164.105 224.400 C 168.119 232.115,170.080 235.797,170.393 236.200 C 170.563 236.420,171.779 238.670,173.096 241.200 C 174.412 243.730,176.142 246.970,176.941 248.400 C 177.739 249.830,179.047 252.260,179.848 253.800 C 180.649 255.340,181.991 257.860,182.830 259.400 C 183.669 260.940,185.058 263.550,185.916 265.200 C 186.774 266.850,188.207 269.550,189.100 271.200 C 189.993 272.850,191.588 275.820,192.645 277.800 C 193.701 279.780,195.341 282.840,196.289 284.600 C 197.238 286.360,198.283 288.385,198.612 289.100 C 199.650 291.355,200.885 290.912,202.516 287.700 C 205.010 282.787,207.575 278.024,208.594 276.409 C 209.147 275.533,209.600 274.702,209.600 274.563 C 209.600 274.424,210.976 271.765,212.659 268.655 C 214.341 265.545,216.324 261.774,217.065 260.276 C 217.806 258.778,218.588 257.338,218.803 257.076 C 219.017 256.814,219.890 255.250,220.741 253.600 C 221.593 251.950,222.969 249.340,223.799 247.800 C 225.961 243.788,228.286 239.431,229.987 236.200 C 230.797 234.660,232.340 231.780,233.415 229.800 C 235.266 226.390,236.071 224.884,239.757 217.935 C 240.613 216.321,242.486 212.840,243.918 210.200 C 245.350 207.560,247.129 204.230,247.871 202.800 C 249.226 200.188,250.845 197.164,253.869 191.600 C 257.069 185.710,257.586 184.554,258.615 181.000 C 261.254 171.887,261.818 164.043,260.421 155.927 C 259.672 151.582,257.162 142.368,256.475 141.444 C 256.293 141.200,255.634 139.830,255.009 138.400 C 250.334 127.695,239.950 116.865,228.800 111.065 C 227.150 110.206,225.445 109.256,225.011 108.952 C 224.577 108.648,223.857 108.399,223.411 108.398 C 222.965 108.396,222.082 108.125,221.449 107.795 C 215.572 104.730,202.199 103.337,191.200 104.643 M204.894 127.179 C 205.832 127.388,208.040 127.851,209.800 128.209 C 213.104 128.881,220.205 132.120,222.274 133.898 C 222.852 134.394,223.455 134.800,223.615 134.800 C 224.984 134.800,231.925 143.123,234.289 147.600 C 244.065 166.113,236.250 190.643,217.800 199.362 C 216.920 199.777,215.879 200.276,215.488 200.470 C 207.267 204.535,194.204 204.604,185.400 200.628 C 184.740 200.330,183.341 199.692,182.290 199.210 C 176.304 196.464,166.878 186.627,165.417 181.600 C 165.107 180.536,163.813 177.499,163.136 176.248 C 161.758 173.704,161.794 157.846,163.184 154.425 C 163.592 153.421,164.343 151.520,164.853 150.200 C 169.070 139.288,183.935 127.640,193.704 127.594 C 194.417 127.591,195.270 127.413,195.600 127.200 C 196.373 126.701,202.678 126.686,204.894 127.179 M193.184 135.946 C 167.348 142.612,161.848 176.165,184.214 190.666 C 198.706 200.061,219.827 194.295,226.944 179.000 C 227.354 178.120,227.867 177.058,228.085 176.641 C 238.679 156.329,216.122 130.026,193.184 135.946 " stroke="none" fill="#dfd5d6" fill-rule="evenodd"></path><path id="path1" d="M194.200 95.847 C 186.099 97.089,178.847 98.857,175.344 100.444 C 168.179 103.691,166.639 104.473,163.533 106.441 C 150.538 114.673,138.862 129.279,135.107 142.000 C 134.685 143.430,134.067 145.500,133.734 146.600 C 132.238 151.543,131.400 157.861,131.400 164.200 C 131.400 169.222,132.224 177.338,133.004 180.000 C 134.776 186.046,135.828 188.822,137.225 191.138 C 138.091 192.574,138.800 193.882,138.800 194.043 C 138.800 194.205,139.700 195.895,140.800 197.800 C 141.900 199.705,142.800 201.446,142.800 201.670 C 142.800 201.893,143.138 202.554,143.550 203.138 C 143.963 203.722,144.948 205.516,145.741 207.125 C 146.533 208.735,147.546 210.562,147.991 211.187 C 148.436 211.812,148.800 212.570,148.800 212.871 C 148.800 213.172,149.385 214.314,150.100 215.409 C 150.815 216.504,151.639 217.940,151.930 218.600 C 152.222 219.260,153.828 222.320,155.500 225.400 C 158.465 230.864,159.643 233.056,162.914 239.200 C 163.793 240.850,164.997 243.100,165.589 244.200 C 166.182 245.300,167.717 248.180,169.000 250.600 C 172.123 256.491,173.957 259.925,176.156 264.000 C 177.164 265.870,178.660 268.750,179.479 270.400 C 180.298 272.050,181.082 273.490,181.220 273.600 C 181.359 273.710,182.650 276.050,184.088 278.800 C 185.526 281.550,187.191 284.700,187.789 285.800 C 188.387 286.900,189.550 289.060,190.374 290.600 C 191.198 292.140,192.561 294.660,193.403 296.200 C 194.245 297.740,195.389 299.872,195.944 300.938 C 198.884 306.583,202.000 305.908,205.617 298.844 C 207.913 294.357,210.508 289.508,212.274 286.400 C 212.961 285.190,214.505 282.310,215.705 280.000 C 217.782 276.001,219.291 273.164,222.196 267.800 C 223.989 264.491,227.438 258.038,229.466 254.200 C 230.396 252.440,231.404 250.550,231.706 250.000 C 232.007 249.450,233.301 247.020,234.580 244.600 C 235.859 242.180,237.062 240.029,237.253 239.820 C 237.444 239.611,237.600 239.175,237.600 238.851 C 237.600 238.528,237.855 237.979,238.168 237.631 C 238.480 237.284,239.492 235.560,240.416 233.800 C 242.690 229.471,245.369 224.424,247.317 220.800 C 248.204 219.150,249.532 216.647,250.268 215.237 C 251.004 213.828,251.765 212.478,251.960 212.237 C 252.155 211.997,253.789 208.920,255.593 205.400 C 257.396 201.880,259.030 198.808,259.224 198.573 C 260.769 196.702,266.282 184.596,266.865 181.795 C 269.988 166.787,270.034 162.677,267.234 148.800 C 264.533 135.417,254.648 119.836,243.200 110.919 C 240.378 108.721,235.320 105.200,234.984 105.200 C 234.869 105.200,233.541 104.501,232.033 103.646 C 230.525 102.791,228.595 101.867,227.745 101.592 C 226.895 101.317,225.480 100.729,224.600 100.285 C 218.926 97.423,200.995 94.806,194.200 95.847 M208.400 104.611 C 213.563 105.187,218.986 106.510,221.449 107.795 C 222.082 108.125,222.965 108.396,223.411 108.398 C 223.857 108.399,224.577 108.648,225.011 108.952 C 225.445 109.256,227.150 110.206,228.800 111.065 C 239.950 116.865,250.334 127.695,255.009 138.400 C 255.634 139.830,256.293 141.200,256.475 141.444 C 257.162 142.368,259.672 151.582,260.421 155.927 C 261.818 164.043,261.254 171.887,258.615 181.000 C 257.586 184.554,257.069 185.710,253.869 191.600 C 250.845 197.164,249.226 200.188,247.871 202.800 C 247.129 204.230,245.350 207.560,243.918 210.200 C 242.486 212.840,240.613 216.321,239.757 217.935 C 236.071 224.884,235.266 226.390,233.415 229.800 C 232.340 231.780,230.797 234.660,229.987 236.200 C 228.286 239.431,225.961 243.788,223.799 247.800 C 222.969 249.340,221.593 251.950,220.741 253.600 C 219.890 255.250,219.017 256.814,218.803 257.076 C 218.588 257.338,217.806 258.778,217.065 260.276 C 216.324 261.774,214.341 265.545,212.659 268.655 C 210.976 271.765,209.600 274.424,209.600 274.563 C 209.600 274.702,209.147 275.533,208.594 276.409 C 207.575 278.024,205.010 282.787,202.516 287.700 C 200.885 290.912,199.650 291.355,198.612 289.100 C 198.283 288.385,197.238 286.360,196.289 284.600 C 195.341 282.840,193.701 279.780,192.645 277.800 C 191.588 275.820,189.993 272.850,189.100 271.200 C 188.207 269.550,186.774 266.850,185.916 265.200 C 185.058 263.550,183.669 260.940,182.830 259.400 C 181.991 257.860,180.649 255.340,179.848 253.800 C 179.047 252.260,177.739 249.830,176.941 248.400 C 176.142 246.970,174.412 243.730,173.096 241.200 C 171.779 238.670,170.563 236.420,170.393 236.200 C 170.080 235.797,168.119 232.115,164.105 224.400 C 162.904 222.090,161.609 219.660,161.229 219.000 C 160.580 217.872,158.303 213.662,155.390 208.200 C 154.686 206.880,153.386 204.450,152.502 202.800 C 151.618 201.150,149.944 198.000,148.781 195.800 C 147.618 193.600,145.977 190.540,145.132 189.000 C 142.896 184.919,142.352 183.653,141.785 181.200 C 141.506 179.990,140.954 177.830,140.560 176.400 C 138.615 169.352,139.637 154.445,142.740 144.600 C 143.668 141.656,147.793 133.378,149.685 130.661 C 153.866 124.661,164.750 114.000,166.695 114.000 C 166.905 114.000,167.402 113.640,167.800 113.200 C 168.198 112.760,168.649 112.400,168.802 112.400 C 168.955 112.400,170.699 111.521,172.677 110.446 C 174.655 109.371,176.887 108.360,177.637 108.199 C 178.387 108.039,179.180 107.766,179.400 107.594 C 182.731 104.982,197.821 103.429,208.400 104.611 M195.600 127.200 C 195.270 127.413,194.417 127.591,193.704 127.594 C 183.935 127.640,169.070 139.288,164.853 150.200 C 164.343 151.520,163.592 153.421,163.184 154.425 C 161.794 157.846,161.758 173.704,163.136 176.248 C 163.813 177.499,165.107 180.536,165.417 181.600 C 166.404 184.996,172.653 192.596,177.290 196.039 C 180.582 198.484,183.526 200.009,188.800 202.001 C 195.598 204.570,208.719 203.817,215.488 200.470 C 215.879 200.276,216.920 199.777,217.800 199.362 C 236.250 190.643,244.065 166.113,234.289 147.600 C 231.925 143.123,224.984 134.800,223.615 134.800 C 223.455 134.800,222.852 134.394,222.274 133.898 C 220.205 132.120,213.104 128.881,209.800 128.209 C 208.040 127.851,205.832 127.388,204.894 127.179 C 202.678 126.686,196.373 126.701,195.600 127.200 M206.588 135.799 C 224.738 140.132,235.983 161.498,228.085 176.641 C 227.867 177.058,227.354 178.120,226.944 179.000 C 217.522 199.249,187.881 200.817,175.080 181.743 C 160.368 159.822,181.028 129.696,206.588 135.799 " stroke="none" fill="#404040" fill-rule="evenodd"></path></g></svg>