<svg id="svg" version="1.1" xmlns="http://www.w3.org/2000/svg" xmlns:xlink="http://www.w3.org/1999/xlink" width="400" height="400" viewBox="0, 0, 400,400"><g id="svgg"><path id="path0" d="M253.400 117.968 C 250.888 118.583,250.115 118.882,248.000 120.058 C 247.670 120.241,246.770 120.740,246.000 121.165 C 236.702 126.301,233.195 138.788,237.677 150.801 C 238.855 153.956,245.897 161.200,247.787 161.200 C 248.070 161.200,248.526 161.470,248.800 161.800 C 249.074 162.130,249.681 162.406,250.149 162.414 C 250.617 162.421,251.720 162.775,252.600 163.200 C 253.896 163.826,255.073 163.973,258.800 163.973 C 262.527 163.973,263.704 163.826,265.000 163.200 C 265.880 162.775,266.983 162.421,267.451 162.414 C 267.919 162.406,268.526 162.130,268.800 161.800 C 269.074 161.470,269.530 161.200,269.813 161.200 C 270.417 161.200,273.907 158.503,275.672 156.673 C 277.682 154.589,280.794 149.378,280.806 148.079 C 280.809 147.705,281.071 146.680,281.388 145.800 C 282.171 143.629,282.177 137.599,281.400 135.738 C 281.070 134.949,280.800 133.946,280.800 133.510 C 280.800 129.804,272.814 120.763,268.324 119.385 C 267.816 119.230,267.220 118.964,267.000 118.795 C 265.180 117.397,257.614 116.937,253.400 117.968 M301.235 144.691 C 300.704 144.791,300.017 145.126,299.707 145.436 C 299.397 145.746,298.931 146.003,298.671 146.006 C 298.412 146.010,296.940 147.186,295.400 148.620 C 293.860 150.055,291.250 152.347,289.600 153.714 C 287.950 155.081,285.691 157.100,284.579 158.200 C 283.468 159.300,280.779 161.730,278.603 163.600 C 276.428 165.470,272.924 168.620,270.817 170.600 C 266.260 174.883,259.921 180.375,258.622 181.164 C 257.767 181.684,257.591 181.632,256.383 180.503 C 255.662 179.829,253.706 178.592,252.036 177.754 L 249.000 176.230 243.400 176.230 C 238.991 176.230,237.545 176.368,236.600 176.880 C 235.940 177.237,234.410 178.018,233.200 178.616 C 231.990 179.214,230.910 179.819,230.800 179.961 C 230.690 180.102,230.129 180.518,229.554 180.883 C 228.979 181.249,226.451 183.494,223.937 185.874 C 221.422 188.253,217.961 191.460,216.246 193.000 C 214.530 194.540,212.648 196.231,212.063 196.757 C 211.478 197.284,208.840 199.730,206.200 202.194 C 203.560 204.658,200.410 207.546,199.200 208.611 C 196.614 210.889,194.373 212.940,191.030 216.089 C 187.845 219.088,187.310 219.073,184.000 215.888 C 182.570 214.512,179.960 212.149,178.200 210.636 C 176.440 209.123,173.200 206.226,171.000 204.197 C 167.016 200.522,160.990 195.142,153.416 188.496 C 151.226 186.573,147.896 183.535,146.016 181.744 C 144.137 179.953,141.160 177.275,139.400 175.794 C 137.640 174.313,134.220 171.247,131.800 168.980 C 129.380 166.714,126.590 164.199,125.600 163.393 C 124.610 162.586,121.820 160.077,119.400 157.818 C 113.760 152.551,108.422 148.011,107.400 147.613 C 96.486 143.358,84.832 152.068,87.186 162.721 C 88.020 166.498,88.733 167.457,94.386 172.400 C 97.069 174.746,100.889 178.209,103.592 180.745 C 104.147 181.265,105.667 182.615,106.972 183.745 C 111.521 187.686,113.815 189.741,116.000 191.830 C 117.210 192.987,118.830 194.441,119.600 195.060 C 120.370 195.680,121.090 196.296,121.200 196.429 C 121.310 196.563,122.390 197.536,123.600 198.592 C 124.810 199.649,127.070 201.703,128.623 203.156 C 130.175 204.610,132.065 206.324,132.823 206.964 C 134.314 208.224,140.703 213.976,142.416 215.600 C 142.996 216.150,144.175 217.217,145.035 217.971 C 148.292 220.825,154.069 226.032,158.162 229.804 C 158.403 230.026,160.220 231.629,162.200 233.366 C 164.180 235.104,167.067 237.712,168.615 239.163 C 171.590 241.950,178.160 247.867,185.922 254.748 C 195.128 262.909,203.026 263.380,209.242 256.137 C 210.319 254.883,218.415 247.415,222.400 244.000 C 222.950 243.529,224.840 241.755,226.600 240.059 C 228.360 238.362,231.510 235.451,233.600 233.589 C 235.690 231.727,238.913 228.762,240.763 227.002 C 244.381 223.557,244.538 223.412,247.232 221.000 C 248.215 220.120,250.696 217.870,252.745 216.000 C 254.795 214.130,256.771 212.432,257.136 212.226 C 257.501 212.020,257.998 211.660,258.241 211.426 C 258.483 211.192,259.646 210.190,260.824 209.200 C 262.003 208.210,264.325 206.118,265.984 204.551 C 267.643 202.984,270.350 200.558,272.000 199.159 C 273.650 197.760,276.065 195.622,277.367 194.408 C 278.669 193.193,280.026 191.930,280.383 191.600 C 280.740 191.270,282.374 189.832,284.016 188.405 C 287.272 185.574,289.133 183.888,293.400 179.903 C 294.940 178.465,296.920 176.683,297.800 175.944 C 298.680 175.205,299.931 174.150,300.581 173.600 C 301.230 173.050,303.300 171.140,305.181 169.355 C 307.061 167.570,309.312 165.500,310.183 164.755 C 312.199 163.029,313.973 161.106,313.988 160.631 C 313.995 160.429,314.294 159.938,314.653 159.542 C 315.799 158.275,315.536 153.045,314.206 150.698 C 311.650 146.183,306.347 143.727,301.235 144.691 M47.800 152.030 C 45.004 154.128,45.035 154.535,48.216 157.492 C 49.747 158.916,53.340 162.368,56.200 165.162 C 59.060 167.957,62.936 171.674,64.813 173.422 C 66.690 175.170,69.660 177.935,71.413 179.566 C 73.166 181.197,77.132 184.977,80.227 187.966 C 83.322 190.955,88.179 195.560,91.020 198.200 C 96.161 202.976,100.537 207.129,106.351 212.747 C 109.433 215.726,117.423 223.253,120.000 225.606 C 120.770 226.310,124.893 230.241,129.162 234.342 C 138.288 243.111,137.121 242.006,140.600 245.179 C 142.140 246.583,147.172 251.348,151.782 255.766 C 156.392 260.185,160.455 264.070,160.810 264.400 C 161.166 264.730,162.615 266.068,164.029 267.374 C 165.443 268.679,168.130 271.200,170.000 272.976 C 174.508 277.256,181.830 281.996,183.940 281.999 C 184.236 282.000,185.046 282.258,185.740 282.574 C 190.384 284.689,200.860 284.516,207.200 282.220 C 209.130 281.521,216.868 277.653,217.200 277.221 C 217.310 277.078,218.030 276.534,218.800 276.012 C 219.985 275.208,226.472 269.888,227.830 268.606 C 228.066 268.383,229.236 267.356,230.430 266.324 C 231.623 265.292,233.320 263.784,234.200 262.973 C 235.080 262.161,237.690 259.870,240.000 257.880 C 242.310 255.891,244.509 253.949,244.886 253.564 C 245.263 253.179,247.147 251.545,249.073 249.932 C 250.999 248.319,253.661 245.985,254.988 244.745 C 256.314 243.504,258.751 241.344,260.403 239.945 C 262.054 238.545,264.104 236.770,264.959 236.000 C 265.813 235.230,266.715 234.420,266.964 234.200 C 267.212 233.980,268.224 233.080,269.214 232.200 C 270.203 231.320,272.066 229.700,273.355 228.600 C 274.643 227.500,276.171 226.172,276.749 225.649 C 279.805 222.883,281.291 221.566,284.010 219.211 C 285.655 217.787,287.810 215.864,288.800 214.938 C 289.790 214.013,291.269 212.727,292.088 212.081 C 293.405 211.041,295.912 208.838,300.400 204.777 C 301.170 204.080,303.240 202.294,305.000 200.807 C 306.760 199.320,308.663 197.675,309.230 197.152 C 311.538 195.018,313.940 192.892,316.179 191.000 C 318.304 189.204,320.061 187.638,323.800 184.207 C 324.460 183.601,325.810 182.452,326.799 181.653 C 327.789 180.854,328.796 180.020,329.036 179.800 C 335.088 174.267,336.998 172.570,339.000 170.947 C 340.320 169.877,342.480 167.986,343.800 166.745 C 345.120 165.504,347.550 163.372,349.200 162.006 C 355.031 157.179,355.164 156.887,352.638 154.479 C 350.347 152.296,350.095 152.335,346.901 155.353 C 345.416 156.757,342.850 159.031,341.200 160.406 C 339.550 161.781,336.760 164.218,335.000 165.821 C 333.240 167.424,330.726 169.605,329.414 170.668 C 328.102 171.731,326.205 173.410,325.197 174.400 C 323.224 176.340,318.944 180.071,317.000 181.547 C 316.340 182.048,314.630 183.579,313.200 184.949 C 311.770 186.319,309.614 188.241,308.410 189.220 C 307.205 190.199,306.020 191.180,305.777 191.400 C 305.534 191.620,303.714 193.287,301.733 195.104 C 299.751 196.921,297.155 199.171,295.964 200.104 C 294.773 201.037,293.158 202.430,292.376 203.200 C 290.088 205.451,287.573 207.684,285.000 209.748 C 283.680 210.807,281.430 212.794,280.000 214.162 C 278.570 215.531,276.140 217.654,274.600 218.880 C 273.060 220.106,270.880 221.985,269.755 223.055 C 267.152 225.532,265.544 226.953,262.800 229.200 C 261.591 230.190,259.882 231.691,259.001 232.536 C 258.120 233.382,255.786 235.452,253.814 237.136 C 251.842 238.821,249.142 241.201,247.814 242.424 C 246.486 243.647,243.421 246.347,241.001 248.424 C 238.582 250.501,235.792 252.949,234.801 253.864 C 233.811 254.779,231.650 256.647,230.000 258.014 C 228.350 259.381,225.920 261.512,224.600 262.751 C 218.417 268.553,212.344 273.196,208.800 274.829 C 208.250 275.083,207.322 275.540,206.738 275.845 C 206.154 276.150,205.344 276.401,204.938 276.402 C 204.532 276.404,203.660 276.707,203.000 277.077 C 199.813 278.863,187.448 277.945,184.769 275.723 C 184.421 275.436,183.881 275.198,183.569 275.197 C 182.141 275.188,176.243 270.432,169.892 264.169 C 166.102 260.431,162.010 256.488,160.800 255.407 C 157.968 252.877,147.246 242.735,143.033 238.600 C 139.696 235.325,137.239 233.008,128.189 224.600 C 125.348 221.960,120.228 217.079,116.812 213.753 C 113.395 210.427,109.431 206.647,108.003 205.353 C 104.186 201.895,99.806 197.748,92.845 191.000 C 84.580 182.989,84.661 183.065,80.591 179.400 C 76.882 176.060,76.499 175.696,67.142 166.600 C 63.973 163.520,59.422 159.200,57.027 157.000 C 54.632 154.800,52.296 152.614,51.836 152.143 C 50.461 150.734,49.561 150.709,47.800 152.030 " stroke="none" fill="#404040" fill-rule="evenodd"></path><path id="path1" d="M176.592 2.386 C 177.068 3.158,175.126 3.600,171.259 3.600 C 167.149 3.600,165.841 3.819,166.226 4.442 C 166.400 4.723,160.838 5.059,159.500 4.847 C 159.335 4.821,159.200 5.160,159.200 5.600 C 159.200 6.319,158.933 6.400,156.571 6.400 C 154.768 6.400,153.754 6.588,153.343 7.000 C 152.846 7.496,149.480 7.897,147.900 7.647 C 147.735 7.621,147.600 7.791,147.600 8.024 C 147.600 8.257,147.420 8.336,147.200 8.200 C 146.980 8.064,146.800 8.233,146.800 8.576 C 146.800 9.059,146.344 9.200,144.787 9.200 C 143.368 9.200,142.707 9.377,142.545 9.800 C 142.383 10.220,141.728 10.400,140.357 10.400 C 138.667 10.400,138.400 10.509,138.400 11.200 C 138.400 11.892,138.133 12.000,136.420 12.000 C 135.111 12.000,134.330 12.196,134.117 12.577 C 133.921 12.926,133.048 13.192,131.897 13.251 C 130.647 13.316,130.000 13.529,130.000 13.875 C 130.000 14.189,129.528 14.400,128.824 14.400 C 128.177 14.400,127.541 14.572,127.411 14.783 C 127.281 14.993,126.933 15.073,126.639 14.960 C 126.344 14.847,125.996 15.034,125.864 15.377 C 125.720 15.753,125.140 16.000,124.400 16.000 C 123.680 16.000,123.080 16.247,122.945 16.600 C 122.818 16.930,122.228 17.200,121.633 17.200 C 121.038 17.200,120.164 17.560,119.692 18.000 C 119.220 18.440,118.281 18.800,117.604 18.800 C 116.880 18.800,116.280 19.047,116.145 19.400 C 116.018 19.730,115.584 20.000,115.181 20.000 C 114.777 20.000,114.334 20.183,114.196 20.407 C 114.058 20.630,113.773 20.707,113.562 20.577 C 113.352 20.447,113.230 20.579,113.290 20.870 C 113.355 21.184,112.963 21.450,112.329 21.524 C 111.740 21.592,111.043 21.907,110.780 22.224 C 110.517 22.541,109.874 22.800,109.351 22.800 C 108.828 22.800,108.400 22.991,108.400 23.224 C 108.400 23.457,108.189 23.517,107.932 23.358 C 107.617 23.164,107.548 23.287,107.719 23.734 C 107.954 24.346,106.911 24.677,105.489 24.444 C 105.318 24.416,105.073 24.664,104.946 24.996 C 104.819 25.328,104.507 25.600,104.253 25.600 C 104.000 25.600,103.568 25.960,103.293 26.400 C 103.010 26.852,102.360 27.200,101.797 27.200 C 101.177 27.200,100.800 27.427,100.800 27.800 C 100.800 28.319,99.545 28.644,98.300 28.447 C 98.135 28.421,98.000 28.760,98.000 29.200 C 98.000 29.717,97.717 30.018,97.200 30.050 C 95.756 30.140,95.574 30.195,95.285 30.629 C 95.128 30.865,94.685 31.175,94.300 31.317 C 93.915 31.459,93.600 31.851,93.600 32.187 C 93.600 32.527,93.254 32.800,92.824 32.800 C 92.397 32.800,91.929 32.991,91.785 33.225 C 91.640 33.458,91.090 33.814,90.561 34.015 C 90.033 34.216,89.600 34.655,89.600 34.990 C 89.600 35.422,89.185 35.600,88.176 35.600 C 87.269 35.600,86.849 35.755,87.017 36.027 C 87.162 36.262,86.903 36.553,86.440 36.674 C 85.962 36.799,85.600 37.218,85.600 37.647 C 85.600 38.142,85.316 38.400,84.771 38.400 C 84.316 38.400,83.673 38.670,83.343 39.000 C 83.013 39.330,82.396 39.600,81.971 39.600 C 81.547 39.600,81.221 39.735,81.247 39.900 C 81.376 40.716,81.155 41.220,80.773 40.983 C 80.538 40.838,80.250 41.088,80.132 41.537 C 79.984 42.104,79.531 42.393,78.659 42.478 C 77.967 42.545,77.439 42.807,77.487 43.060 C 77.534 43.313,77.122 43.633,76.570 43.772 C 76.019 43.910,75.683 44.210,75.824 44.439 C 75.965 44.667,75.702 44.953,75.240 45.074 C 74.778 45.194,74.400 45.521,74.400 45.800 C 74.400 46.079,74.040 46.401,73.600 46.516 C 73.160 46.631,72.800 46.972,72.800 47.275 C 72.800 47.577,72.305 48.051,71.700 48.328 C 69.373 49.393,68.796 49.811,68.982 50.297 C 69.088 50.574,68.905 50.800,68.575 50.800 C 68.245 50.800,67.874 51.063,67.750 51.385 C 67.627 51.706,67.183 52.079,66.763 52.212 C 66.343 52.345,66.000 52.712,66.000 53.027 C 66.000 53.342,65.730 53.600,65.400 53.600 C 65.070 53.600,64.800 53.870,64.800 54.200 C 64.800 54.533,64.444 54.800,64.000 54.800 C 63.467 54.800,63.200 55.067,63.200 55.600 C 63.200 56.044,62.933 56.400,62.600 56.400 C 62.270 56.400,62.000 56.670,62.000 57.000 C 62.000 57.333,61.644 57.600,61.200 57.600 C 60.667 57.600,60.400 57.867,60.400 58.400 C 60.400 58.844,60.133 59.200,59.800 59.200 C 59.470 59.200,59.200 59.470,59.200 59.800 C 59.200 60.133,58.844 60.400,58.400 60.400 C 57.867 60.400,57.600 60.667,57.600 61.200 C 57.600 61.644,57.333 62.000,57.000 62.000 C 56.670 62.000,56.400 62.270,56.400 62.600 C 56.400 62.933,56.044 63.200,55.600 63.200 C 55.067 63.200,54.800 63.467,54.800 64.000 C 54.800 64.444,54.533 64.800,54.200 64.800 C 53.870 64.800,53.600 65.070,53.600 65.400 C 53.600 65.730,53.428 66.000,53.218 66.000 C 53.008 66.000,52.378 66.458,51.818 67.018 C 51.258 67.578,50.800 68.208,50.800 68.418 C 50.800 68.628,50.530 68.800,50.200 68.800 C 49.870 68.800,49.600 68.980,49.600 69.200 C 49.600 69.995,49.480 70.209,48.746 70.723 C 48.336 71.010,48.000 71.595,48.000 72.023 C 48.000 72.454,47.727 72.800,47.387 72.800 C 47.051 72.800,46.659 73.101,46.518 73.469 C 46.192 74.318,44.694 75.831,44.307 75.702 C 44.146 75.649,43.903 76.048,43.767 76.589 C 43.631 77.130,43.313 77.534,43.060 77.487 C 42.807 77.439,42.545 77.967,42.478 78.659 C 42.393 79.531,42.104 79.984,41.537 80.132 C 41.088 80.250,40.838 80.538,40.983 80.773 C 41.220 81.155,40.716 81.376,39.900 81.247 C 39.735 81.221,39.600 81.547,39.600 81.971 C 39.600 82.396,39.330 83.013,39.000 83.343 C 38.670 83.673,38.400 84.316,38.400 84.771 C 38.400 85.316,38.142 85.600,37.647 85.600 C 37.218 85.600,36.799 85.962,36.674 86.440 C 36.553 86.903,36.262 87.162,36.027 87.017 C 35.755 86.849,35.600 87.269,35.600 88.176 C 35.600 89.188,35.423 89.600,34.987 89.600 C 34.651 89.600,34.257 89.915,34.112 90.300 C 33.968 90.685,33.626 91.180,33.353 91.400 C 33.080 91.620,32.795 92.250,32.719 92.800 C 32.643 93.350,32.355 93.753,32.079 93.696 C 31.803 93.639,31.461 93.909,31.318 94.296 C 31.175 94.683,30.865 95.128,30.629 95.285 C 30.195 95.574,30.140 95.756,30.050 97.200 C 30.018 97.717,29.717 98.000,29.200 98.000 C 28.760 98.000,28.421 98.135,28.447 98.300 C 28.644 99.545,28.319 100.800,27.800 100.800 C 27.427 100.800,27.200 101.177,27.200 101.797 C 27.200 102.360,26.852 103.010,26.400 103.293 C 25.960 103.568,25.600 104.000,25.600 104.253 C 25.600 104.507,25.322 104.821,24.981 104.952 C 24.641 105.082,24.392 105.417,24.429 105.695 C 24.589 106.917,24.355 107.600,23.776 107.600 C 23.433 107.600,23.264 107.780,23.400 108.000 C 23.536 108.220,23.457 108.400,23.224 108.400 C 22.991 108.400,22.800 108.828,22.800 109.351 C 22.800 109.874,22.541 110.517,22.224 110.780 C 21.907 111.043,21.592 111.740,21.524 112.329 C 21.456 112.918,21.195 113.362,20.944 113.315 C 20.693 113.268,20.285 114.033,20.038 115.015 C 19.791 115.997,19.449 116.800,19.279 116.800 C 19.109 116.800,18.930 117.385,18.881 118.100 C 18.828 118.871,18.468 119.623,17.996 119.949 C 17.467 120.314,17.200 120.951,17.200 121.849 C 17.200 122.709,17.020 123.164,16.705 123.100 C 16.404 123.039,16.129 123.625,16.000 124.600 C 15.879 125.520,15.590 126.161,15.320 126.108 C 15.062 126.058,14.845 126.328,14.838 126.708 C 14.805 128.363,14.267 130.000,13.755 130.000 C 13.450 130.000,13.221 130.135,13.247 130.300 C 13.495 131.867,13.122 134.000,12.600 134.000 C 12.139 134.000,12.000 134.511,12.000 136.200 C 12.000 138.133,11.903 138.400,11.200 138.400 C 10.509 138.400,10.400 138.667,10.400 140.357 C 10.400 141.695,10.217 142.385,9.822 142.536 C 9.442 142.682,9.202 143.486,9.122 144.879 C 9.045 146.213,8.828 146.968,8.538 146.913 C 8.284 146.865,7.971 147.099,7.843 147.433 C 7.687 147.838,7.775 147.948,8.105 147.762 C 8.491 147.544,8.490 147.601,8.100 148.021 C 7.825 148.318,7.600 149.405,7.600 150.437 C 7.600 151.737,7.415 152.385,7.000 152.545 C 6.536 152.723,6.400 153.501,6.400 155.987 C 6.400 158.852,6.319 159.200,5.656 159.200 C 4.999 159.200,4.904 159.577,4.834 162.451 C 4.781 164.664,4.572 165.886,4.178 166.279 C 3.746 166.711,3.600 167.939,3.600 171.140 C 3.600 174.925,3.507 175.502,2.801 176.106 C 1.562 177.167,1.578 222.930,2.818 223.704 C 3.522 224.144,3.600 224.662,3.600 228.909 C 3.600 232.732,3.714 233.669,4.200 233.855 C 4.667 234.035,4.800 234.828,4.800 237.443 C 4.800 240.533,4.864 240.800,5.600 240.800 C 6.328 240.800,6.400 241.067,6.400 243.751 C 6.400 245.886,6.566 246.840,7.000 247.200 C 7.402 247.533,7.602 248.442,7.606 249.949 C 7.612 252.187,7.966 253.304,8.645 253.229 C 8.840 253.207,9.055 254.101,9.122 255.216 C 9.200 256.526,9.448 257.320,9.822 257.464 C 10.217 257.615,10.400 258.304,10.400 259.639 C 10.400 261.160,10.577 261.704,11.200 262.093 C 11.797 262.465,12.000 263.026,12.000 264.296 C 12.000 265.544,12.161 266.000,12.600 266.000 C 13.032 266.000,13.200 266.441,13.200 267.571 C 13.200 268.436,13.441 269.384,13.736 269.678 C 14.252 270.195,14.787 271.842,14.911 273.300 C 14.944 273.685,15.203 274.000,15.486 274.000 C 15.807 274.000,16.000 274.526,16.000 275.400 C 16.000 276.378,16.181 276.800,16.600 276.800 C 17.015 276.800,17.200 277.217,17.200 278.151 C 17.200 279.049,17.467 279.686,17.996 280.051 C 18.472 280.380,18.828 281.130,18.882 281.923 C 18.933 282.651,19.205 283.438,19.487 283.672 C 19.769 283.906,20.000 284.438,20.000 284.853 C 20.000 285.268,20.360 285.916,20.800 286.293 C 21.240 286.670,21.600 287.375,21.600 287.860 C 21.600 288.346,21.870 289.013,22.200 289.343 C 22.530 289.673,22.800 290.211,22.800 290.539 C 22.800 291.571,23.265 292.400,23.843 292.400 C 24.166 292.400,24.400 292.808,24.400 293.371 C 24.400 293.906,24.670 294.613,25.000 294.943 C 25.330 295.273,25.600 295.671,25.600 295.827 C 25.600 295.984,25.915 296.370,26.300 296.686 C 26.758 297.061,26.793 297.170,26.400 297.000 C 26.007 296.830,26.042 296.939,26.500 297.314 C 26.885 297.630,27.200 298.183,27.200 298.544 C 27.200 298.905,27.470 299.200,27.800 299.200 C 28.319 299.200,28.644 300.455,28.447 301.700 C 28.421 301.865,28.760 302.000,29.200 302.000 C 29.717 302.000,30.018 302.283,30.050 302.800 C 30.140 304.244,30.195 304.426,30.629 304.715 C 30.865 304.872,31.175 305.315,31.317 305.700 C 31.459 306.085,31.851 306.400,32.187 306.400 C 32.576 306.400,32.800 306.770,32.800 307.413 C 32.800 307.969,33.070 308.529,33.400 308.655 C 33.730 308.782,34.000 309.153,34.000 309.480 C 34.000 309.807,34.360 310.169,34.800 310.284 C 35.405 310.442,35.600 310.830,35.600 311.870 C 35.600 312.744,35.756 313.151,36.027 312.983 C 36.262 312.838,36.553 313.097,36.674 313.560 C 36.799 314.038,37.218 314.400,37.647 314.400 C 38.241 314.400,38.400 314.696,38.400 315.800 C 38.400 316.778,38.581 317.200,39.000 317.200 C 39.333 317.200,39.600 317.556,39.600 318.000 C 39.600 318.541,39.867 318.800,40.424 318.800 C 40.905 318.800,41.138 318.977,40.983 319.227 C 40.838 319.462,41.088 319.750,41.537 319.868 C 42.104 320.016,42.393 320.469,42.478 321.341 C 42.545 322.033,42.807 322.561,43.060 322.513 C 43.313 322.466,43.633 322.878,43.772 323.430 C 43.910 323.981,44.210 324.317,44.439 324.176 C 44.667 324.035,44.953 324.298,45.074 324.760 C 45.194 325.222,45.542 325.600,45.847 325.600 C 46.151 325.600,46.400 325.887,46.400 326.237 C 46.400 326.588,46.760 326.969,47.200 327.084 C 47.640 327.199,48.000 327.622,48.000 328.024 C 48.000 328.426,48.336 328.990,48.746 329.277 C 49.480 329.791,49.600 330.005,49.600 330.800 C 49.600 331.020,49.870 331.200,50.200 331.200 C 50.530 331.200,50.800 331.458,50.800 331.773 C 50.800 332.088,51.173 332.464,51.629 332.609 C 52.127 332.767,52.372 333.097,52.241 333.436 C 52.100 333.804,52.299 334.000,52.813 334.000 C 53.253 334.000,53.600 334.270,53.600 334.613 C 53.600 334.949,53.870 335.329,54.200 335.455 C 54.530 335.582,54.800 335.936,54.800 336.243 C 54.800 336.549,55.160 336.800,55.600 336.800 C 56.044 336.800,56.400 337.067,56.400 337.400 C 56.400 337.730,56.670 338.000,57.000 338.000 C 57.333 338.000,57.600 338.356,57.600 338.800 C 57.600 339.333,57.867 339.600,58.400 339.600 C 58.844 339.600,59.200 339.867,59.200 340.200 C 59.200 340.530,59.470 340.800,59.800 340.800 C 60.133 340.800,60.400 341.156,60.400 341.600 C 60.400 342.133,60.667 342.400,61.200 342.400 C 61.644 342.400,62.000 342.667,62.000 343.000 C 62.000 343.330,62.270 343.600,62.600 343.600 C 62.933 343.600,63.200 343.956,63.200 344.400 C 63.200 344.933,63.467 345.200,64.000 345.200 C 64.444 345.200,64.800 345.467,64.800 345.800 C 64.800 346.130,65.070 346.400,65.400 346.400 C 65.730 346.400,66.000 346.658,66.000 346.973 C 66.000 347.288,66.343 347.655,66.763 347.788 C 67.183 347.921,67.627 348.294,67.750 348.615 C 67.874 348.937,68.245 349.200,68.575 349.200 C 68.970 349.200,69.088 349.427,68.919 349.866 C 68.764 350.270,68.825 350.432,69.074 350.278 C 69.299 350.139,69.901 350.469,70.412 351.012 C 70.922 351.556,71.668 352.000,72.070 352.000 C 72.471 352.000,72.800 352.287,72.800 352.637 C 72.800 352.988,73.160 353.369,73.600 353.484 C 74.040 353.599,74.400 353.942,74.400 354.247 C 74.400 354.551,74.670 354.800,75.000 354.800 C 75.330 354.800,75.600 355.067,75.600 355.392 C 75.600 355.718,76.044 356.096,76.587 356.232 C 77.129 356.369,77.534 356.679,77.487 356.922 C 77.401 357.360,77.656 357.453,79.200 357.550 C 79.640 357.578,80.000 357.876,80.000 358.213 C 80.000 358.549,80.270 358.929,80.600 359.055 C 80.930 359.182,81.200 359.536,81.200 359.843 C 81.200 360.149,81.560 360.400,82.000 360.400 C 82.440 360.400,82.800 360.650,82.800 360.955 C 82.800 361.274,83.398 361.623,84.200 361.774 C 84.972 361.918,85.600 362.276,85.600 362.571 C 85.600 362.866,85.978 363.206,86.440 363.326 C 86.903 363.447,87.162 363.738,87.017 363.973 C 86.849 364.245,87.269 364.400,88.176 364.400 C 89.185 364.400,89.600 364.578,89.600 365.010 C 89.600 365.345,90.061 365.795,90.624 366.009 C 91.187 366.223,91.544 366.567,91.416 366.773 C 91.289 366.980,91.773 367.205,92.492 367.274 C 93.294 367.351,93.760 367.598,93.696 367.911 C 93.639 368.192,93.909 368.539,94.296 368.682 C 94.683 368.825,95.128 369.135,95.285 369.371 C 95.574 369.805,95.756 369.860,97.200 369.950 C 97.717 369.982,98.000 370.283,98.000 370.800 C 98.000 371.240,98.135 371.579,98.300 371.553 C 99.545 371.356,100.800 371.681,100.800 372.200 C 100.800 372.569,101.175 372.800,101.776 372.800 C 102.313 372.800,102.881 373.008,103.038 373.262 C 103.226 373.565,103.131 373.624,102.762 373.432 C 102.453 373.272,102.549 373.424,102.976 373.770 C 103.404 374.117,103.989 374.400,104.276 374.400 C 104.564 374.400,104.800 374.578,104.800 374.795 C 104.800 375.013,105.506 375.303,106.370 375.442 C 107.482 375.619,107.877 375.854,107.727 376.246 C 107.610 376.551,107.669 376.813,107.857 376.830 C 109.128 376.940,110.204 377.283,110.431 377.650 C 110.577 377.886,111.305 378.212,112.048 378.374 C 112.792 378.535,113.361 378.858,113.314 379.092 C 113.267 379.325,113.834 379.630,114.574 379.769 C 115.314 379.908,116.107 380.247,116.337 380.524 C 116.566 380.800,117.349 381.067,118.077 381.118 C 118.870 381.172,119.620 381.528,119.949 382.004 C 120.273 382.475,120.950 382.800,121.606 382.800 C 122.222 382.800,122.817 383.066,122.945 383.400 C 123.078 383.748,123.676 384.000,124.368 384.000 C 125.047 384.000,125.715 384.277,125.920 384.642 C 126.136 385.029,127.020 385.368,128.140 385.494 C 129.346 385.630,130.000 385.897,130.000 386.252 C 130.000 386.641,130.567 386.800,131.957 386.800 C 133.328 386.800,133.983 386.980,134.145 387.400 C 134.307 387.823,134.968 388.000,136.387 388.000 C 138.133 388.000,138.400 388.106,138.400 388.800 C 138.400 389.491,138.667 389.600,140.357 389.600 C 141.695 389.600,142.385 389.783,142.536 390.178 C 142.680 390.552,143.474 390.800,144.784 390.878 C 145.899 390.945,146.793 391.160,146.771 391.355 C 146.694 392.050,147.834 392.388,150.276 392.394 C 151.710 392.397,152.873 392.594,153.038 392.862 C 153.227 393.167,153.146 393.214,152.800 393.000 C 152.454 392.786,152.373 392.833,152.562 393.138 C 152.738 393.424,154.043 393.600,155.977 393.600 C 158.770 393.600,159.129 393.686,159.316 394.400 C 159.503 395.116,159.862 395.200,162.714 395.200 C 165.060 395.200,166.034 395.358,166.400 395.800 C 166.789 396.269,167.892 396.400,171.449 396.400 C 175.057 396.400,176.000 396.515,176.000 396.953 C 176.000 397.928,177.412 397.989,200.000 397.989 C 222.588 397.989,224.000 397.928,224.000 396.953 C 224.000 396.514,224.946 396.400,228.571 396.400 C 232.102 396.400,233.280 396.263,233.743 395.800 C 234.177 395.366,235.235 395.200,237.571 395.200 C 240.533 395.200,240.800 395.134,240.800 394.400 C 240.800 393.672,241.067 393.600,243.757 393.600 C 246.017 393.600,246.769 393.458,246.945 393.000 C 247.117 392.552,247.833 392.400,249.773 392.400 C 251.962 392.400,252.439 392.274,252.800 391.600 C 253.139 390.967,253.638 390.800,255.194 390.800 C 256.486 390.800,257.270 390.603,257.482 390.226 C 257.676 389.878,258.591 389.602,259.801 389.526 C 261.255 389.434,261.800 389.236,261.800 388.800 C 261.800 388.367,262.335 388.166,263.721 388.077 C 264.937 388.000,265.724 387.742,265.864 387.377 C 266.015 386.983,266.706 386.800,268.043 386.800 C 269.516 386.800,270.000 386.652,270.000 386.200 C 270.000 385.781,270.422 385.600,271.400 385.600 C 272.267 385.600,273.105 385.295,273.600 384.800 C 274.048 384.352,274.933 384.000,275.613 384.000 C 276.321 384.000,276.921 383.751,277.055 383.400 C 277.182 383.070,277.763 382.800,278.347 382.800 C 278.974 382.800,279.612 382.473,279.907 382.000 C 280.253 381.446,280.840 381.200,281.816 381.200 C 282.646 381.200,283.312 380.973,283.437 380.647 C 283.554 380.343,284.358 379.981,285.223 379.843 C 286.099 379.703,286.753 379.386,286.699 379.129 C 286.644 378.875,287.225 378.532,287.989 378.366 C 288.753 378.200,289.443 377.870,289.523 377.632 C 289.602 377.395,289.997 377.200,290.401 377.200 C 291.562 377.200,292.400 376.763,292.400 376.157 C 292.400 375.681,293.449 375.382,294.511 375.556 C 294.682 375.584,294.927 375.336,295.054 375.004 C 295.181 374.672,295.496 374.400,295.754 374.400 C 296.011 374.400,296.530 374.040,296.907 373.600 C 297.284 373.160,297.954 372.800,298.396 372.800 C 298.844 372.800,299.200 372.534,299.200 372.200 C 299.200 371.870,299.545 371.600,299.967 371.600 C 301.159 371.600,302.000 371.169,302.000 370.557 C 302.000 370.251,302.360 369.978,302.800 369.950 C 304.244 369.860,304.426 369.805,304.715 369.371 C 304.872 369.135,305.315 368.825,305.700 368.683 C 306.085 368.541,306.400 368.149,306.400 367.813 C 306.400 367.399,306.789 367.200,307.600 367.200 C 308.355 367.200,308.800 366.995,308.800 366.647 C 308.800 366.342,309.160 365.999,309.600 365.884 C 310.040 365.769,310.400 365.388,310.400 365.037 C 310.400 364.601,310.765 364.400,311.557 364.400 C 312.217 364.400,312.813 364.142,312.945 363.800 C 313.071 363.470,313.451 363.200,313.787 363.200 C 314.124 363.200,314.400 362.950,314.400 362.645 C 314.400 362.326,314.998 361.977,315.800 361.826 C 316.638 361.669,317.200 361.330,317.200 360.982 C 317.200 360.662,317.476 360.400,317.813 360.400 C 318.149 360.400,318.529 360.130,318.655 359.800 C 318.782 359.470,319.136 359.200,319.443 359.200 C 319.749 359.200,320.000 358.840,320.000 358.400 C 320.000 357.782,320.267 357.600,321.173 357.600 C 321.991 357.600,322.422 357.360,322.597 356.808 C 322.736 356.373,322.973 356.034,323.124 356.055 C 323.939 356.171,324.400 355.934,324.400 355.400 C 324.400 355.070,324.670 354.800,325.000 354.800 C 325.330 354.800,325.600 354.551,325.600 354.247 C 325.600 353.942,325.960 353.599,326.400 353.484 C 326.840 353.369,327.200 352.988,327.200 352.637 C 327.200 352.287,327.529 352.000,327.930 352.000 C 328.332 352.000,329.078 351.556,329.588 351.012 C 330.099 350.469,330.670 350.120,330.858 350.236 C 331.046 350.352,331.201 350.212,331.203 349.924 C 331.204 349.636,331.834 348.972,332.603 348.448 C 333.371 347.925,334.000 347.250,334.000 346.948 C 334.000 346.647,334.276 346.400,334.613 346.400 C 334.949 346.400,335.329 346.130,335.455 345.800 C 335.582 345.470,335.936 345.200,336.243 345.200 C 336.549 345.200,336.800 344.840,336.800 344.400 C 336.800 343.956,337.067 343.600,337.400 343.600 C 337.730 343.600,338.000 343.330,338.000 343.000 C 338.000 342.667,338.356 342.400,338.800 342.400 C 339.333 342.400,339.600 342.133,339.600 341.600 C 339.600 341.156,339.867 340.800,340.200 340.800 C 340.530 340.800,340.800 340.530,340.800 340.200 C 340.800 339.867,341.156 339.600,341.600 339.600 C 342.133 339.600,342.400 339.333,342.400 338.800 C 342.400 338.356,342.667 338.000,343.000 338.000 C 343.330 338.000,343.600 337.730,343.600 337.400 C 343.600 337.067,343.956 336.800,344.400 336.800 C 344.840 336.800,345.200 336.549,345.200 336.243 C 345.200 335.936,345.470 335.582,345.800 335.455 C 346.130 335.329,346.400 334.949,346.400 334.613 C 346.400 334.276,346.604 334.000,346.854 334.000 C 347.336 334.000,349.200 332.154,349.200 331.676 C 349.200 331.520,349.578 331.157,350.039 330.869 C 350.500 330.580,350.772 330.238,350.641 330.108 C 350.511 329.978,350.764 329.620,351.203 329.313 C 351.641 329.006,352.000 328.426,352.000 328.024 C 352.000 327.622,352.360 327.199,352.800 327.084 C 353.240 326.969,353.600 326.588,353.600 326.237 C 353.600 325.887,353.870 325.600,354.200 325.600 C 354.530 325.600,354.800 325.330,354.800 325.000 C 354.800 324.670,355.070 324.400,355.400 324.400 C 355.730 324.400,356.023 324.220,356.050 324.000 C 356.078 323.780,356.123 323.375,356.150 323.100 C 356.178 322.825,356.470 322.600,356.800 322.600 C 357.185 322.600,357.445 322.133,357.525 321.300 C 357.619 320.324,357.844 320.000,358.425 320.000 C 358.851 320.000,359.200 319.749,359.200 319.443 C 359.200 319.136,359.470 318.782,359.800 318.655 C 360.130 318.529,360.400 318.149,360.400 317.813 C 360.400 317.476,360.662 317.200,360.982 317.200 C 361.330 317.200,361.669 316.638,361.826 315.800 C 361.977 314.998,362.326 314.400,362.645 314.400 C 362.950 314.400,363.200 314.124,363.200 313.787 C 363.200 313.451,363.470 313.071,363.800 312.945 C 364.142 312.813,364.400 312.217,364.400 311.557 C 364.400 310.785,364.604 310.400,365.013 310.400 C 365.349 310.400,365.743 310.085,365.888 309.700 C 366.032 309.315,366.374 308.820,366.647 308.600 C 366.920 308.380,367.205 307.750,367.281 307.200 C 367.357 306.650,367.645 306.247,367.921 306.304 C 368.197 306.361,368.539 306.091,368.682 305.704 C 368.825 305.317,369.135 304.872,369.371 304.715 C 369.805 304.426,369.860 304.244,369.950 302.800 C 369.978 302.360,370.251 302.000,370.557 302.000 C 371.169 302.000,371.600 301.159,371.600 299.967 C 371.600 299.545,371.870 299.200,372.200 299.200 C 372.534 299.200,372.800 298.844,372.800 298.396 C 372.800 297.954,373.160 297.284,373.600 296.907 C 374.040 296.530,374.400 296.011,374.400 295.754 C 374.400 295.496,374.670 295.182,375.000 295.055 C 375.351 294.921,375.600 294.321,375.600 293.613 C 375.600 292.843,375.803 292.400,376.157 292.400 C 376.735 292.400,377.200 291.571,377.200 290.539 C 377.200 290.211,377.470 289.673,377.800 289.343 C 378.130 289.013,378.400 288.346,378.400 287.860 C 378.400 287.375,378.760 286.670,379.200 286.293 C 379.640 285.916,380.000 285.268,380.000 284.853 C 380.000 284.438,380.231 283.906,380.513 283.672 C 380.795 283.438,381.067 282.651,381.117 281.923 C 381.169 281.181,381.558 280.308,382.004 279.936 C 382.442 279.571,382.800 278.825,382.800 278.279 C 382.800 277.732,383.070 277.182,383.400 277.055 C 383.751 276.921,384.000 276.321,384.000 275.613 C 384.000 274.933,384.352 274.048,384.800 273.600 C 385.295 273.105,385.600 272.267,385.600 271.400 C 385.600 270.422,385.781 270.000,386.200 270.000 C 386.653 270.000,386.800 269.511,386.800 268.000 C 386.800 266.489,386.947 266.000,387.400 266.000 C 387.839 266.000,388.000 265.544,388.000 264.296 C 388.000 263.026,388.203 262.465,388.800 262.093 C 389.423 261.704,389.600 261.160,389.600 259.639 C 389.600 258.272,389.780 257.617,390.200 257.455 C 390.623 257.293,390.800 256.634,390.800 255.227 C 390.800 253.638,390.964 253.140,391.600 252.800 C 392.260 252.447,392.400 251.962,392.400 250.029 C 392.400 248.315,392.561 247.624,393.000 247.455 C 393.464 247.277,393.600 246.499,393.600 244.013 C 393.600 241.067,393.666 240.800,394.400 240.800 C 395.134 240.800,395.200 240.533,395.200 237.571 C 395.200 235.235,395.366 234.177,395.800 233.743 C 396.259 233.284,396.400 232.134,396.400 228.860 C 396.400 225.096,396.495 224.496,397.187 223.904 C 398.436 222.835,398.453 177.884,397.206 176.298 C 396.508 175.411,396.400 174.679,396.400 170.824 C 396.400 167.238,396.284 166.330,395.800 166.145 C 395.336 165.967,395.200 165.190,395.200 162.720 C 395.200 159.862,395.116 159.503,394.400 159.316 C 393.693 159.131,393.600 158.770,393.600 156.202 C 393.600 154.109,393.433 153.159,393.000 152.800 C 392.598 152.467,392.398 151.558,392.394 150.051 C 392.388 147.813,392.034 146.696,391.355 146.771 C 391.160 146.793,390.945 145.899,390.878 144.784 C 390.800 143.474,390.552 142.680,390.178 142.536 C 389.788 142.387,389.600 141.707,389.600 140.446 C 389.600 139.035,389.404 138.435,388.800 138.000 C 388.214 137.578,388.000 136.965,388.000 135.712 C 388.000 134.457,387.840 134.000,387.400 134.000 C 386.955 134.000,386.800 133.532,386.800 132.187 C 386.800 130.945,386.611 130.302,386.200 130.145 C 385.830 130.003,385.600 129.395,385.600 128.557 C 385.600 127.811,385.401 127.200,385.157 127.200 C 384.914 127.200,384.817 126.932,384.943 126.605 C 385.074 126.263,384.967 126.050,384.691 126.105 C 384.408 126.161,384.125 125.545,384.000 124.600 C 383.871 123.625,383.596 123.039,383.295 123.100 C 382.980 123.164,382.800 122.709,382.800 121.849 C 382.800 120.951,382.533 120.314,382.004 119.949 C 381.528 119.620,381.172 118.870,381.118 118.077 C 381.067 117.349,380.800 116.566,380.524 116.337 C 380.247 116.107,379.906 115.308,379.766 114.560 C 379.621 113.789,379.271 113.200,378.955 113.200 C 378.634 113.200,378.400 112.791,378.400 112.229 C 378.400 111.694,378.131 110.988,377.802 110.659 C 377.288 110.145,376.942 109.148,376.830 107.857 C 376.813 107.669,376.530 107.618,376.200 107.745 C 375.797 107.899,375.600 107.727,375.600 107.220 C 375.600 106.444,373.717 102.400,373.355 102.400 C 373.244 102.400,373.281 102.608,373.438 102.862 C 373.615 103.148,373.548 103.215,373.262 103.038 C 373.008 102.881,372.800 102.313,372.800 101.776 C 372.800 101.175,372.569 100.800,372.200 100.800 C 371.681 100.800,371.356 99.545,371.553 98.300 C 371.579 98.135,371.240 98.000,370.800 98.000 C 370.283 98.000,369.982 97.717,369.950 97.200 C 369.860 95.756,369.805 95.574,369.371 95.285 C 369.135 95.128,368.825 94.683,368.682 94.296 C 368.539 93.909,368.197 93.639,367.921 93.696 C 367.645 93.753,367.357 93.350,367.281 92.800 C 367.205 92.250,366.920 91.620,366.647 91.400 C 366.374 91.180,366.032 90.685,365.888 90.300 C 365.743 89.915,365.349 89.600,365.013 89.600 C 364.577 89.600,364.400 89.188,364.400 88.176 C 364.400 87.269,364.245 86.849,363.973 87.017 C 363.738 87.162,363.447 86.903,363.326 86.440 C 363.206 85.978,362.866 85.600,362.571 85.600 C 362.276 85.600,361.918 84.972,361.774 84.200 C 361.623 83.398,361.274 82.800,360.955 82.800 C 360.650 82.800,360.400 82.440,360.400 82.000 C 360.400 81.560,360.149 81.200,359.843 81.200 C 359.536 81.200,359.182 80.930,359.055 80.600 C 358.929 80.270,358.561 80.000,358.238 80.000 C 357.868 80.000,357.604 79.519,357.525 78.700 C 357.456 77.985,357.193 77.439,356.940 77.487 C 356.687 77.534,356.369 77.129,356.232 76.587 C 356.096 76.044,355.718 75.600,355.392 75.600 C 355.067 75.600,354.800 75.330,354.800 75.000 C 354.800 74.670,354.551 74.400,354.247 74.400 C 353.942 74.400,353.599 74.040,353.484 73.600 C 353.369 73.160,352.988 72.800,352.637 72.800 C 352.273 72.800,352.000 72.467,352.000 72.023 C 352.000 71.595,351.595 70.962,351.100 70.615 C 350.605 70.268,350.245 69.898,350.300 69.792 C 350.573 69.268,350.337 68.800,349.800 68.800 C 349.470 68.800,349.200 68.549,349.200 68.243 C 349.200 67.936,348.930 67.582,348.600 67.455 C 348.270 67.329,348.000 66.949,348.000 66.613 C 348.000 66.276,347.865 66.021,347.700 66.047 C 346.875 66.178,346.400 65.941,346.400 65.400 C 346.400 65.070,346.151 64.800,345.847 64.800 C 345.542 64.800,345.199 64.440,345.084 64.000 C 344.969 63.560,344.588 63.200,344.237 63.200 C 343.887 63.200,343.600 62.930,343.600 62.600 C 343.600 62.270,343.330 62.000,343.000 62.000 C 342.667 62.000,342.400 61.644,342.400 61.200 C 342.400 60.667,342.133 60.400,341.600 60.400 C 341.156 60.400,340.800 60.133,340.800 59.800 C 340.800 59.470,340.530 59.200,340.200 59.200 C 339.867 59.200,339.600 58.844,339.600 58.400 C 339.600 57.867,339.333 57.600,338.800 57.600 C 338.356 57.600,338.000 57.333,338.000 57.000 C 338.000 56.670,337.730 56.400,337.400 56.400 C 337.067 56.400,336.800 56.044,336.800 55.600 C 336.800 55.160,336.549 54.800,336.243 54.800 C 335.936 54.800,335.582 54.530,335.455 54.200 C 335.329 53.870,334.949 53.600,334.613 53.600 C 334.276 53.600,334.000 53.324,334.000 52.987 C 334.000 52.651,333.685 52.259,333.300 52.118 C 332.915 51.976,332.456 51.622,332.280 51.330 C 332.104 51.039,331.684 50.800,331.347 50.800 C 331.009 50.800,330.808 50.576,330.899 50.303 C 331.066 49.802,330.298 49.212,328.326 48.327 C 327.736 48.061,327.168 47.519,327.064 47.122 C 326.960 46.725,326.588 46.400,326.237 46.400 C 325.887 46.400,325.600 46.151,325.600 45.847 C 325.600 45.542,325.222 45.194,324.760 45.074 C 324.298 44.953,324.030 44.675,324.166 44.456 C 324.301 44.237,324.066 43.948,323.643 43.814 C 323.220 43.679,322.773 43.306,322.650 42.985 C 322.524 42.657,321.913 42.400,321.259 42.400 C 320.411 42.400,320.033 42.171,319.874 41.560 C 319.753 41.097,319.462 40.838,319.227 40.983 C 318.977 41.138,318.800 40.905,318.800 40.424 C 318.800 39.867,318.541 39.600,318.000 39.600 C 317.556 39.600,317.200 39.333,317.200 39.000 C 317.200 38.670,317.065 38.421,316.900 38.447 C 315.481 38.671,314.400 38.325,314.400 37.647 C 314.400 37.218,314.038 36.799,313.560 36.674 C 313.097 36.553,312.838 36.262,312.983 36.027 C 313.151 35.755,312.731 35.600,311.824 35.600 C 310.788 35.600,310.400 35.426,310.400 34.963 C 310.400 34.612,310.040 34.231,309.600 34.116 C 309.160 34.001,308.800 33.658,308.800 33.353 C 308.800 33.005,308.355 32.800,307.600 32.800 C 306.789 32.800,306.400 32.601,306.400 32.187 C 306.400 31.851,306.085 31.459,305.700 31.317 C 305.315 31.175,304.872 30.865,304.715 30.629 C 304.426 30.195,304.244 30.140,302.800 30.050 C 302.283 30.018,302.000 29.717,302.000 29.200 C 302.000 28.760,301.865 28.421,301.700 28.447 C 300.455 28.644,299.200 28.319,299.200 27.800 C 299.200 27.470,298.905 27.200,298.544 27.200 C 298.183 27.200,297.630 26.885,297.314 26.500 C 296.939 26.042,296.830 26.007,297.000 26.400 C 297.170 26.793,297.061 26.758,296.686 26.300 C 296.370 25.915,295.817 25.600,295.456 25.600 C 295.095 25.600,294.845 25.383,294.900 25.118 C 294.999 24.642,294.759 24.547,293.200 24.450 C 292.760 24.422,292.400 24.149,292.400 23.843 C 292.400 23.265,291.571 22.800,290.539 22.800 C 290.211 22.800,289.673 22.530,289.343 22.200 C 289.013 21.870,288.346 21.600,287.860 21.600 C 287.375 21.600,286.670 21.240,286.293 20.800 C 285.916 20.360,285.265 20.000,284.847 20.000 C 284.428 20.000,283.982 19.730,283.855 19.400 C 283.711 19.023,283.099 18.800,282.213 18.800 C 281.436 18.800,280.800 18.620,280.800 18.400 C 280.800 18.180,280.530 18.000,280.200 18.000 C 279.870 18.000,279.600 17.820,279.600 17.600 C 279.600 17.380,279.054 17.200,278.387 17.200 C 277.679 17.200,277.079 16.951,276.945 16.600 C 276.815 16.261,276.219 16.000,275.577 16.000 C 274.952 16.000,274.287 15.727,274.101 15.394 C 273.908 15.049,273.007 14.713,272.008 14.614 C 270.988 14.513,270.109 14.180,269.907 13.820 C 269.677 13.408,268.976 13.200,267.823 13.200 C 266.648 13.200,266.011 13.006,265.855 12.600 C 265.697 12.186,265.051 12.000,263.775 12.000 C 262.262 12.000,261.887 11.855,261.716 11.200 C 261.543 10.538,261.170 10.400,259.553 10.400 C 258.084 10.400,257.600 10.251,257.600 9.800 C 257.600 9.339,257.089 9.200,255.400 9.200 C 253.674 9.200,253.200 9.066,253.200 8.576 C 253.200 8.233,253.020 8.064,252.800 8.200 C 252.580 8.336,252.400 8.257,252.400 8.024 C 252.400 7.769,251.370 7.600,249.824 7.600 C 248.308 7.600,247.130 7.410,246.962 7.138 C 246.773 6.833,246.854 6.786,247.200 7.000 C 247.546 7.214,247.627 7.167,247.438 6.862 C 247.261 6.575,245.946 6.400,243.976 6.400 C 241.067 6.400,240.800 6.333,240.800 5.600 C 240.800 4.859,240.533 4.800,237.200 4.800 C 234.533 4.800,233.626 4.670,233.700 4.300 C 233.774 3.928,232.623 3.773,229.200 3.696 C 225.186 3.605,224.516 3.491,223.941 2.802 C 223.213 1.930,176.053 1.515,176.592 2.386 M263.457 117.844 C 265.186 118.198,266.780 118.626,267.000 118.795 C 267.220 118.964,267.816 119.230,268.324 119.385 C 272.814 120.763,280.800 129.804,280.800 133.510 C 280.800 133.946,281.070 134.949,281.400 135.738 C 282.177 137.599,282.171 143.629,281.388 145.800 C 281.071 146.680,280.809 147.705,280.806 148.079 C 280.794 149.378,277.682 154.589,275.672 156.673 C 273.907 158.503,270.417 161.200,269.813 161.200 C 269.530 161.200,269.074 161.470,268.800 161.800 C 268.526 162.130,267.919 162.406,267.451 162.414 C 266.983 162.421,265.880 162.775,265.000 163.200 C 263.704 163.826,262.527 163.973,258.800 163.973 C 255.073 163.973,253.896 163.826,252.600 163.200 C 251.720 162.775,250.617 162.421,250.149 162.414 C 249.681 162.406,249.074 162.130,248.800 161.800 C 248.526 161.470,248.070 161.200,247.787 161.200 C 245.897 161.200,238.855 153.956,237.677 150.801 C 233.195 138.788,236.702 126.301,246.000 121.165 C 246.770 120.740,247.670 120.241,248.000 120.058 C 250.115 118.882,250.888 118.583,253.400 117.968 C 257.025 117.081,259.581 117.050,263.457 117.844 M307.956 145.284 C 313.053 147.726,315.278 150.888,315.294 155.710 C 315.303 158.037,315.141 159.002,314.653 159.542 C 314.294 159.938,313.995 160.429,313.988 160.631 C 313.973 161.106,312.199 163.029,310.183 164.755 C 309.312 165.500,307.061 167.570,305.181 169.355 C 303.300 171.140,301.230 173.050,300.581 173.600 C 299.931 174.150,298.680 175.205,297.800 175.944 C 296.920 176.683,294.940 178.465,293.400 179.903 C 289.133 183.888,287.272 185.574,284.016 188.405 C 282.374 189.832,280.740 191.270,280.383 191.600 C 280.026 191.930,278.669 193.193,277.367 194.408 C 276.065 195.622,273.650 197.760,272.000 199.159 C 270.350 200.558,267.643 202.984,265.984 204.551 C 264.325 206.118,262.003 208.210,260.824 209.200 C 259.646 210.190,258.483 211.192,258.241 211.426 C 257.998 211.660,257.501 212.020,257.136 212.226 C 256.771 212.432,254.795 214.130,252.745 216.000 C 250.696 217.870,248.215 220.120,247.232 221.000 C 244.538 223.412,244.381 223.557,240.763 227.002 C 238.913 228.762,235.690 231.727,233.600 233.589 C 231.510 235.451,228.360 238.362,226.600 240.059 C 224.840 241.755,222.950 243.529,222.400 244.000 C 218.415 247.415,210.319 254.883,209.242 256.137 C 203.026 263.380,195.128 262.909,185.922 254.748 C 178.160 247.867,171.590 241.950,168.615 239.163 C 167.067 237.712,164.180 235.104,162.200 233.366 C 160.220 231.629,158.403 230.026,158.162 229.804 C 154.069 226.032,148.292 220.825,145.035 217.971 C 144.175 217.217,142.996 216.150,142.416 215.600 C 140.703 213.976,134.314 208.224,132.823 206.964 C 132.065 206.324,130.175 204.610,128.623 203.156 C 127.070 201.703,124.810 199.649,123.600 198.592 C 122.390 197.536,121.310 196.563,121.200 196.429 C 121.090 196.296,120.370 195.680,119.600 195.060 C 118.830 194.441,117.210 192.987,116.000 191.830 C 113.815 189.741,111.521 187.686,106.972 183.745 C 105.667 182.615,104.147 181.265,103.592 180.745 C 100.889 178.209,97.069 174.746,94.386 172.400 C 88.733 167.457,88.020 166.498,87.186 162.721 C 85.502 155.101,91.891 147.367,100.896 146.123 C 102.216 145.941,104.387 146.438,107.400 147.613 C 108.422 148.011,113.760 152.551,119.400 157.818 C 121.820 160.077,124.610 162.586,125.600 163.393 C 126.590 164.199,129.380 166.714,131.800 168.980 C 134.220 171.247,137.640 174.313,139.400 175.794 C 141.160 177.275,144.137 179.953,146.016 181.744 C 147.896 183.535,151.226 186.573,153.416 188.496 C 160.990 195.142,167.016 200.522,171.000 204.197 C 173.200 206.226,176.440 209.123,178.200 210.636 C 179.960 212.149,182.570 214.512,184.000 215.888 C 187.310 219.073,187.845 219.088,191.030 216.089 C 194.373 212.940,196.614 210.889,199.200 208.611 C 200.410 207.546,203.560 204.658,206.200 202.194 C 208.840 199.730,211.478 197.284,212.063 196.757 C 212.648 196.231,214.530 194.540,216.246 193.000 C 217.961 191.460,221.422 188.253,223.937 185.874 C 226.451 183.494,228.979 181.249,229.554 180.883 C 230.129 180.518,230.690 180.102,230.800 179.961 C 230.910 179.819,231.990 179.214,233.200 178.616 C 234.410 178.018,235.940 177.237,236.600 176.880 C 237.545 176.368,238.991 176.230,243.400 176.230 L 249.000 176.230 252.036 177.754 C 253.706 178.592,255.662 179.829,256.383 180.503 C 257.591 181.632,257.767 181.684,258.622 181.164 C 259.921 180.375,266.260 174.883,270.817 170.600 C 272.924 168.620,276.428 165.470,278.603 163.600 C 280.779 161.730,283.468 159.300,284.579 158.200 C 285.691 157.100,287.950 155.081,289.600 153.714 C 291.250 152.347,293.860 150.055,295.400 148.620 C 296.940 147.186,298.412 146.010,298.671 146.006 C 298.931 146.003,299.397 145.746,299.707 145.436 C 300.968 144.174,305.468 144.091,307.956 145.284 M51.836 152.143 C 52.296 152.614,54.632 154.800,57.027 157.000 C 59.422 159.200,63.973 163.520,67.142 166.600 C 76.499 175.696,76.882 176.060,80.591 179.400 C 84.661 183.065,84.580 182.989,92.845 191.000 C 99.806 197.748,104.186 201.895,108.003 205.353 C 109.431 206.647,113.395 210.427,116.812 213.753 C 120.228 217.079,125.348 221.960,128.189 224.600 C 137.239 233.008,139.696 235.325,143.033 238.600 C 147.246 242.735,157.968 252.877,160.800 255.407 C 162.010 256.488,166.102 260.431,169.892 264.169 C 176.243 270.432,182.141 275.188,183.569 275.197 C 183.881 275.198,184.421 275.436,184.769 275.723 C 187.448 277.945,199.813 278.863,203.000 277.077 C 203.660 276.707,204.532 276.404,204.938 276.402 C 205.344 276.401,206.154 276.150,206.738 275.845 C 207.322 275.540,208.250 275.083,208.800 274.829 C 212.344 273.196,218.417 268.553,224.600 262.751 C 225.920 261.512,228.350 259.381,230.000 258.014 C 231.650 256.647,233.811 254.779,234.801 253.864 C 235.792 252.949,238.582 250.501,241.001 248.424 C 243.421 246.347,246.486 243.647,247.814 242.424 C 249.142 241.201,251.842 238.821,253.814 237.136 C 255.786 235.452,258.120 233.382,259.001 232.536 C 259.882 231.691,261.591 230.190,262.800 229.200 C 265.544 226.953,267.152 225.532,269.755 223.055 C 270.880 221.985,273.060 220.106,274.600 218.880 C 276.140 217.654,278.570 215.531,280.000 214.162 C 281.430 212.794,283.680 210.807,285.000 209.748 C 287.573 207.684,290.088 205.451,292.376 203.200 C 293.158 202.430,294.773 201.037,295.964 200.104 C 297.155 199.171,299.751 196.921,301.733 195.104 C 303.714 193.287,305.534 191.620,305.777 191.400 C 306.020 191.180,307.205 190.199,308.410 189.220 C 309.614 188.241,311.770 186.319,313.200 184.949 C 314.630 183.579,316.340 182.048,317.000 181.547 C 318.944 180.071,323.224 176.340,325.197 174.400 C 326.205 173.410,328.102 171.731,329.414 170.668 C 330.726 169.605,333.240 167.424,335.000 165.821 C 336.760 164.218,339.550 161.781,341.200 160.406 C 342.850 159.031,345.416 156.757,346.901 155.353 C 350.095 152.335,350.347 152.296,352.638 154.479 C 355.164 156.887,355.031 157.179,349.200 162.006 C 347.550 163.372,345.120 165.504,343.800 166.745 C 342.480 167.986,340.320 169.877,339.000 170.947 C 336.998 172.570,335.088 174.267,329.036 179.800 C 328.796 180.020,327.789 180.854,326.799 181.653 C 325.810 182.452,324.460 183.601,323.800 184.207 C 320.061 187.638,318.304 189.204,316.179 191.000 C 313.940 192.892,311.538 195.018,309.230 197.152 C 308.663 197.675,306.760 199.320,305.000 200.807 C 303.240 202.294,301.170 204.080,300.400 204.777 C 295.912 208.838,293.405 211.041,292.088 212.081 C 291.269 212.727,289.790 214.013,288.800 214.938 C 287.810 215.864,285.655 217.787,284.010 219.211 C 281.291 221.566,279.805 222.883,276.749 225.649 C 276.171 226.172,274.643 227.500,273.355 228.600 C 272.066 229.700,270.203 231.320,269.214 232.200 C 268.224 233.080,267.212 233.980,266.964 234.200 C 266.715 234.420,265.813 235.230,264.959 236.000 C 264.104 236.770,262.054 238.545,260.403 239.945 C 258.751 241.344,256.314 243.504,254.988 244.745 C 253.661 245.985,250.999 248.319,249.073 249.932 C 247.147 251.545,245.263 253.179,244.886 253.564 C 244.509 253.949,242.310 255.891,240.000 257.880 C 237.690 259.870,235.080 262.161,234.200 262.973 C 233.320 263.784,231.623 265.292,230.430 266.324 C 229.236 267.356,228.066 268.383,227.830 268.606 C 226.472 269.888,219.985 275.208,218.800 276.012 C 218.030 276.534,217.310 277.078,217.200 277.221 C 216.868 277.653,209.130 281.521,207.200 282.220 C 200.860 284.516,190.384 284.689,185.740 282.574 C 185.046 282.258,184.236 282.000,183.940 281.999 C 181.830 281.996,174.508 277.256,170.000 272.976 C 168.130 271.200,165.443 268.679,164.029 267.374 C 162.615 266.068,161.166 264.730,160.810 264.400 C 160.455 264.070,156.392 260.185,151.782 255.766 C 147.172 251.348,142.140 246.583,140.600 245.179 C 137.121 242.006,138.288 243.111,129.162 234.342 C 124.893 230.241,120.770 226.310,120.000 225.606 C 117.423 223.253,109.433 215.726,106.351 212.747 C 100.537 207.129,96.161 202.976,91.020 198.200 C 88.179 195.560,83.322 190.955,80.227 187.966 C 77.132 184.977,73.166 181.197,71.413 179.566 C 69.660 177.935,66.690 175.170,64.813 173.422 C 62.936 171.674,59.060 167.957,56.200 165.162 C 53.340 162.368,49.747 158.916,48.216 157.492 C 45.035 154.535,45.004 154.128,47.800 152.030 C 49.561 150.709,50.461 150.734,51.836 152.143 " stroke="none" fill="#dfd5d6" fill-rule="evenodd"></path></g></svg>